{"glyphs":{"0":{"ha":1014,"x_min":0,"x_max":0,"o":"m 506 -17 b 939 486 765 -17 939 204 l 939 489 b 508 989 939 771 765 989 b 75 486 250 989 75 768 l 75 483 b 506 -17 75 201 246 -17 z m 508 176 b 294 486 379 176 294 308 l 294 489 b 506 796 294 667 378 796 b 719 486 633 796 719 663 l 719 483 b 508 176 719 307 638 176 z "},"1":{"ha":586,"x_min":0,"x_max":0,"o":"m 247 0 l 458 0 l 458 979 l 313 979 l 33 896 l 78 721 l 247 763 z "},"2":{"ha":865,"x_min":0,"x_max":0,"o":"m 68 0 l 788 0 l 788 185 l 364 185 l 522 307 b 778 683 694 440 778 521 l 778 686 b 443 986 778 868 644 986 b 81 785 269 986 176 915 l 231 664 b 429 794 303 753 354 794 b 560 668 506 794 560 750 b 392 435 560 588 513 535 l 68 169 z "},"3":{"ha":863,"x_min":0,"x_max":0,"o":"m 432 -17 b 782 301 649 -17 782 118 l 782 304 b 521 576 782 485 653 554 l 767 811 l 767 972 l 110 972 l 110 789 l 492 789 l 260 556 l 293 419 l 382 419 b 572 296 501 419 572 375 l 572 293 b 435 175 572 221 515 175 b 200 292 336 175 267 217 l 53 151 b 432 -17 136 53 257 -17 z "},"4":{"ha":957,"x_min":0,"x_max":0,"o":"m 553 0 l 757 0 l 757 210 l 888 210 l 888 383 l 757 383 l 757 979 l 576 979 l 43 361 l 78 210 l 553 210 z m 294 383 l 553 686 l 553 383 z "},"5":{"ha":875,"x_min":0,"x_max":0,"o":"m 424 -17 b 793 319 647 -17 793 114 l 793 322 b 453 633 793 542 642 633 b 325 617 399 633 364 626 l 336 785 l 750 785 l 750 972 l 153 972 l 125 493 l 249 411 b 411 447 294 431 350 447 b 583 315 513 447 583 399 l 583 313 b 421 178 583 226 521 178 b 189 283 335 178 263 217 l 60 129 b 424 -17 154 39 268 -17 z "},"6":{"ha":919,"x_min":0,"x_max":0,"o":"m 471 -17 b 842 319 682 -17 842 121 l 842 322 b 500 632 842 525 693 632 b 299 569 411 632 350 604 b 494 794 306 654 349 794 b 693 717 578 794 629 765 l 806 882 b 501 989 719 950 633 989 b 75 458 211 989 75 758 l 75 456 b 190 88 75 263 119 158 b 471 -17 258 19 344 -17 z m 463 167 b 293 311 357 167 293 229 l 293 314 b 460 454 293 396 354 454 b 629 313 565 454 629 394 l 629 310 b 463 167 629 226 568 167 z "},"7":{"ha":860,"x_min":0,"x_max":0,"o":"m 117 0 l 358 0 l 794 811 l 794 972 l 94 972 l 94 788 l 551 788 z "},"8":{"ha":875,"x_min":0,"x_max":0,"o":"m 438 -14 b 813 272 653 -14 813 92 l 813 275 b 656 504 813 390 754 453 b 779 717 731 550 779 613 l 779 719 b 438 986 779 869 643 986 b 96 719 232 986 96 868 l 96 717 b 219 504 96 613 144 550 b 63 269 117 457 63 388 l 63 267 b 438 -14 63 97 222 -14 z m 438 575 b 299 694 353 575 299 626 l 299 697 b 438 810 299 757 350 810 b 576 696 525 810 576 756 l 576 693 b 438 575 576 625 522 575 z m 438 163 b 269 283 332 163 269 217 l 269 286 b 438 406 269 361 340 406 b 606 286 535 406 606 361 l 606 283 b 438 163 606 215 543 163 z "},"9":{"ha":919,"x_min":0,"x_max":0,"o":"m 425 178 b 213 261 343 178 283 204 l 100 99 b 419 -17 182 31 278 -17 b 844 514 696 -17 844 199 l 844 517 b 729 883 844 708 799 814 b 449 989 656 957 579 989 b 78 649 229 989 78 844 l 78 646 b 425 332 78 449 214 332 b 622 399 508 332 572 357 b 425 178 614 315 572 178 z m 460 510 b 290 656 354 510 290 569 l 290 658 b 456 806 290 744 350 806 b 626 657 563 806 626 743 l 626 654 b 460 510 626 571 565 510 z "},"A":{"ha":1097,"x_min":0,"x_max":0,"o":"m 33 0 l 251 0 l 340 218 l 751 218 l 840 0 l 1064 0 l 647 979 l 450 979 z m 417 407 l 546 722 l 675 407 z "},"B":{"ha":1003,"x_min":0,"x_max":0,"o":"m 117 0 l 579 0 b 943 267 799 0 943 89 l 943 269 b 761 508 943 400 874 465 b 889 718 831 547 889 608 l 889 721 b 822 886 889 788 867 842 b 568 972 767 942 679 972 l 117 972 z m 676 682 b 522 579 676 610 617 579 l 325 579 l 325 785 l 536 785 b 676 685 626 785 676 749 z m 731 296 l 731 293 b 579 188 731 221 674 188 l 325 188 l 325 401 l 572 401 b 731 296 682 401 731 361 z "},"C":{"ha":1025,"x_min":0,"x_max":0,"o":"m 572 -17 b 971 157 760 -17 871 50 l 835 294 b 579 181 758 225 690 181 b 297 486 413 181 297 319 l 297 489 b 579 792 297 656 415 792 b 828 682 676 792 753 750 l 964 839 b 581 989 874 928 764 989 b 74 486 282 989 74 763 l 74 483 b 572 -17 74 204 286 -17 z "},"D":{"ha":1086,"x_min":0,"x_max":0,"o":"m 117 0 l 496 0 b 1013 486 801 0 1013 213 l 1013 489 b 496 972 1013 763 801 972 l 117 972 z m 496 779 b 789 486 671 779 789 658 l 789 483 b 496 193 789 311 671 193 l 331 193 l 331 779 z "},"E":{"ha":931,"x_min":0,"x_max":0,"o":"m 117 0 l 857 0 l 857 190 l 329 190 l 329 394 l 788 394 l 788 585 l 329 585 l 329 782 l 850 782 l 850 972 l 117 972 z "},"F":{"ha":911,"x_min":0,"x_max":0,"o":"m 117 0 l 331 0 l 331 376 l 794 376 l 794 571 l 331 571 l 331 778 l 857 778 l 857 972 l 117 972 z "},"G":{"ha":1089,"x_min":0,"x_max":0,"o":"m 585 -17 b 1000 138 763 -17 900 53 l 1000 560 l 578 560 l 578 375 l 793 375 l 793 236 b 592 178 739 197 669 178 b 297 486 419 178 297 308 l 297 489 b 576 792 297 654 421 792 b 831 693 689 792 756 756 l 965 856 b 583 989 864 942 758 989 b 74 486 289 989 74 763 l 74 483 b 585 -17 74 196 282 -17 z "},"H":{"ha":1056,"x_min":0,"x_max":0,"o":"m 117 0 l 331 0 l 331 390 l 725 390 l 725 0 l 939 0 l 939 972 l 725 972 l 725 588 l 331 588 l 331 972 l 117 972 z "},"I":{"ha":467,"x_min":0,"x_max":0,"o":"m 126 0 l 340 0 l 340 972 l 126 972 z "},"J":{"ha":783,"x_min":0,"x_max":0,"o":"m 338 -14 b 590 76 443 -14 531 17 b 682 336 649 135 682 221 l 682 972 l 463 972 l 463 346 b 332 185 463 233 413 185 b 154 282 264 185 210 221 l 19 132 b 338 -14 86 53 186 -14 z "},"K":{"ha":1014,"x_min":0,"x_max":0,"o":"m 117 0 l 331 0 l 331 297 l 443 414 l 744 0 l 1001 0 l 588 560 l 983 972 l 725 972 l 331 547 l 331 972 l 117 972 z "},"L":{"ha":860,"x_min":0,"x_max":0,"o":"m 117 0 l 815 0 l 815 194 l 331 194 l 331 972 l 117 972 z "},"M":{"ha":1206,"x_min":0,"x_max":0,"o":"m 117 0 l 326 0 l 326 631 l 597 219 l 603 219 l 876 635 l 876 0 l 1089 0 l 1089 972 l 858 972 l 603 561 l 347 972 l 117 972 z "},"N":{"ha":1097,"x_min":0,"x_max":0,"o":"m 117 0 l 328 0 l 328 618 l 799 0 l 981 0 l 981 972 l 769 972 l 769 374 l 314 972 l 117 972 z "},"O":{"ha":1181,"x_min":0,"x_max":0,"o":"m 589 -17 b 1107 486 889 -17 1107 210 l 1107 489 b 592 989 1107 765 892 989 b 74 486 292 989 74 763 l 74 483 b 589 -17 74 207 289 -17 z m 592 181 b 297 486 419 181 297 319 l 297 489 b 589 792 297 656 417 792 b 883 486 761 792 883 653 l 883 483 b 592 181 883 317 764 181 z "},"P":{"ha":928,"x_min":0,"x_max":0,"o":"m 117 0 l 331 0 l 331 292 l 493 292 b 886 633 711 292 886 408 l 886 636 b 514 972 886 835 746 972 l 117 972 z m 331 482 l 331 779 l 496 779 b 669 632 603 779 669 728 l 669 629 b 500 482 669 546 607 482 z "},"Q":{"ha":1181,"x_min":0,"x_max":0,"o":"m 1121 122 l 1021 207 b 1107 486 1075 288 1107 383 l 1107 489 b 592 989 1107 765 892 989 b 74 486 292 989 74 763 l 74 483 b 589 -17 74 207 289 -17 b 878 67 697 -17 796 14 l 985 -29 z m 592 181 b 297 486 419 181 297 319 l 297 489 b 589 792 297 656 417 792 b 883 486 761 792 883 653 l 883 483 b 857 350 883 435 874 389 l 697 494 l 561 342 l 719 207 b 592 181 682 189 639 181 z "},"R":{"ha":1004,"x_min":0,"x_max":0,"o":"m 117 0 l 331 0 l 331 311 l 499 311 l 707 0 l 957 0 l 719 347 b 928 649 843 393 928 492 l 928 651 b 844 874 928 743 899 819 b 561 972 781 938 685 972 l 117 972 z m 331 500 l 331 779 l 543 779 b 711 640 647 779 711 732 l 711 638 b 547 500 711 556 651 500 z "},"S":{"ha":889,"x_min":0,"x_max":0,"o":"m 463 -14 b 819 288 672 -14 819 94 l 819 290 b 511 582 819 460 708 531 b 301 710 343 625 301 646 l 301 713 b 426 797 301 760 344 797 b 679 701 508 797 593 761 l 790 863 b 429 986 692 942 571 986 b 89 693 231 986 89 869 l 89 690 b 411 393 89 497 215 443 b 607 269 574 351 607 324 l 607 267 b 467 175 607 210 554 175 b 176 293 356 175 264 221 l 50 142 b 463 -14 167 38 315 -14 z "},"T":{"ha":900,"x_min":0,"x_max":0,"o":"m 343 0 l 557 0 l 557 775 l 853 775 l 853 972 l 47 972 l 47 775 l 343 775 z "},"U":{"ha":1050,"x_min":0,"x_max":0,"o":"m 522 -15 b 949 424 783 -15 949 129 l 949 972 l 735 972 l 735 415 b 525 182 735 261 656 182 b 315 422 394 182 315 264 l 315 972 l 101 972 l 101 417 b 522 -15 101 131 261 -15 z "},"V":{"ha":1042,"x_min":0,"x_max":0,"o":"m 426 -7 l 615 -7 l 1008 972 l 778 972 l 524 288 l 269 972 l 33 972 z "},"W":{"ha":1558,"x_min":0,"x_max":0,"o":"m 374 -7 l 560 -7 l 779 629 l 999 -7 l 1185 -7 l 1517 972 l 1293 972 l 1092 314 l 874 975 l 690 975 l 472 314 l 271 972 l 42 972 z "},"X":{"ha":1017,"x_min":0,"x_max":0,"o":"m 717 972 l 510 657 l 307 972 l 57 972 l 382 494 l 43 0 l 286 0 l 506 333 l 724 0 l 974 0 l 635 497 l 960 972 z "},"Y":{"ha":994,"x_min":0,"x_max":0,"o":"m 390 0 l 604 0 l 604 388 l 978 972 l 735 972 l 499 582 l 267 972 l 17 972 l 390 383 z "},"Z":{"ha":983,"x_min":0,"x_max":0,"o":"m 88 0 l 897 0 l 897 188 l 363 188 l 897 810 l 897 972 l 104 972 l 104 785 l 622 785 l 88 163 z "},"a":{"ha":822,"x_min":0,"x_max":0,"o":"m 306 -14 b 531 81 408 -14 479 24 l 531 0 l 735 0 l 735 432 b 654 669 735 532 710 614 b 403 753 601 722 518 753 b 114 693 276 753 196 729 l 167 532 b 372 572 235 557 292 572 b 532 436 478 572 532 524 l 532 424 b 350 454 479 442 425 454 b 50 217 174 454 50 379 l 50 214 b 306 -14 50 67 165 -14 z m 369 132 b 254 222 301 132 254 165 l 254 225 b 400 328 254 292 310 328 b 535 300 451 328 499 317 l 535 263 b 369 132 535 186 468 132 z "},"b":{"ha":938,"x_min":0,"x_max":0,"o":"m 538 -14 b 876 371 714 -14 876 122 l 876 374 b 538 758 876 622 711 758 b 306 638 428 758 357 707 l 306 1014 l 94 1014 l 94 0 l 306 0 l 306 97 b 538 -14 356 38 425 -14 z m 483 165 b 303 371 385 165 303 247 l 303 374 b 483 579 303 497 385 579 b 665 374 582 579 665 497 l 665 371 b 483 165 665 246 582 165 z "},"c":{"ha":793,"x_min":0,"x_max":0,"o":"m 446 -17 b 750 119 594 -17 678 40 l 626 244 b 456 165 575 196 526 165 b 267 371 340 165 267 257 l 267 374 b 447 576 267 483 342 576 b 617 494 522 576 569 544 l 746 633 b 449 758 676 711 589 758 b 58 371 221 758 58 583 l 58 368 b 446 -17 58 156 222 -17 z "},"d":{"ha":938,"x_min":0,"x_max":0,"o":"m 400 -14 b 632 107 510 -14 581 38 l 632 0 l 843 0 l 843 1014 l 632 1014 l 632 647 b 400 758 582 707 513 758 b 61 374 224 758 61 622 l 61 371 b 400 -14 61 122 226 -14 z m 454 165 b 272 371 356 165 272 247 l 272 374 b 454 579 272 499 356 579 b 635 374 553 579 635 497 l 635 371 b 454 165 635 247 553 165 z "},"e":{"ha":851,"x_min":0,"x_max":0,"o":"m 447 -17 b 751 122 582 -17 682 36 l 631 229 b 450 153 572 175 521 153 b 268 299 356 153 289 203 l 786 299 b 789 354 788 318 789 338 b 426 758 789 565 675 758 b 58 371 210 758 58 583 l 58 368 b 447 -17 58 140 224 -17 z m 265 431 b 426 589 282 526 339 589 b 583 431 515 589 571 525 z "},"f":{"ha":531,"x_min":0,"x_max":0,"o":"m 131 0 l 342 0 l 342 564 l 510 564 l 510 736 l 339 736 l 339 765 b 415 846 339 821 367 846 b 511 828 451 846 481 839 l 511 1003 b 361 1024 472 1015 428 1024 b 190 965 286 1024 229 1004 b 131 785 151 926 131 867 l 131 738 l 43 738 l 43 564 l 131 564 z "},"g":{"ha":938,"x_min":0,"x_max":0,"o":"m 428 -225 b 749 -125 572 -225 679 -194 b 843 168 811 -62 843 35 l 843 744 l 632 744 l 632 647 b 392 758 575 710 507 758 b 61 411 221 758 61 633 l 61 408 b 392 61 61 188 218 61 b 635 182 504 61 572 107 l 635 146 b 422 -57 635 13 567 -57 b 171 11 324 -57 247 -32 l 99 -147 b 428 -225 193 -197 307 -225 z m 453 236 b 272 408 350 236 272 306 l 272 411 b 453 583 272 513 350 583 b 635 411 556 583 635 513 l 635 408 b 453 236 635 307 556 236 z "},"h":{"ha":865,"x_min":0,"x_max":0,"o":"m 94 0 l 306 0 l 306 415 b 438 567 306 515 357 567 b 565 415 518 567 565 515 l 565 0 l 776 0 l 776 482 b 524 758 776 653 683 758 b 306 639 417 758 354 701 l 306 1014 l 94 1014 z "},"i":{"ha":419,"x_min":0,"x_max":0,"o":"m 99 826 l 321 826 l 321 1014 l 99 1014 z m 104 0 l 315 0 l 315 744 l 104 744 z "},"j":{"ha":419,"x_min":0,"x_max":0,"o":"m 99 826 l 321 826 l 321 1014 l 99 1014 z m 76 -226 b 315 13 232 -226 315 -151 l 315 744 l 104 744 l 104 29 b 29 -57 104 -33 74 -57 b -15 -53 14 -57 1 -56 l -15 -218 b 76 -226 14 -224 38 -226 z "},"k":{"ha":822,"x_min":0,"x_max":0,"o":"m 94 0 l 306 0 l 306 226 l 381 306 l 571 0 l 815 0 l 522 451 l 806 744 l 553 744 l 306 474 l 306 1014 l 94 1014 z "},"l":{"ha":419,"x_min":0,"x_max":0,"o":"m 104 0 l 315 0 l 315 1014 l 104 1014 z "},"m":{"ha":1319,"x_min":0,"x_max":0,"o":"m 94 0 l 306 0 l 306 415 b 433 567 306 515 354 567 b 557 415 513 567 557 515 l 557 0 l 768 0 l 768 415 b 896 567 768 515 817 567 b 1019 415 975 567 1019 515 l 1019 0 l 1231 0 l 1231 485 b 979 758 1231 664 1136 758 b 735 640 878 758 800 717 b 525 758 696 715 622 758 b 306 639 418 758 354 701 l 306 744 l 94 744 z "},"n":{"ha":865,"x_min":0,"x_max":0,"o":"m 94 0 l 306 0 l 306 415 b 438 567 306 515 357 567 b 565 415 518 567 565 515 l 565 0 l 776 0 l 776 482 b 524 758 776 653 683 758 b 306 639 417 758 354 701 l 306 744 l 94 744 z "},"o":{"ha":922,"x_min":0,"x_max":0,"o":"m 460 -17 b 864 371 692 -17 864 157 l 864 374 b 463 758 864 588 693 758 b 58 371 231 758 58 585 l 58 368 b 460 -17 58 154 229 -17 z m 463 165 b 267 371 346 165 267 261 l 267 374 b 460 576 267 483 339 576 b 656 371 576 576 656 481 l 656 368 b 463 165 656 258 583 165 z "},"p":{"ha":938,"x_min":0,"x_max":0,"o":"m 94 -222 l 306 -222 l 306 97 b 538 -14 356 38 425 -14 b 876 371 714 -14 876 122 l 876 374 b 538 758 876 622 711 758 b 306 638 428 758 357 707 l 306 744 l 94 744 z m 483 165 b 303 371 385 165 303 247 l 303 374 b 483 579 303 497 385 579 b 665 374 582 579 665 497 l 665 371 b 483 165 665 246 582 165 z "},"q":{"ha":938,"x_min":0,"x_max":0,"o":"m 632 -222 l 843 -222 l 843 744 l 632 744 l 632 647 b 400 758 582 707 513 758 b 61 374 224 758 61 622 l 61 371 b 400 -14 61 122 226 -14 b 632 107 510 -14 581 38 z m 454 165 b 272 371 356 165 272 247 l 272 374 b 454 579 272 499 356 579 b 635 374 553 579 635 497 l 635 371 b 454 165 635 247 553 165 z "},"r":{"ha":581,"x_min":0,"x_max":0,"o":"m 94 0 l 306 0 l 306 275 b 532 538 306 453 392 538 l 543 538 l 543 758 b 306 594 418 764 349 697 l 306 744 l 94 744 z "},"s":{"ha":697,"x_min":0,"x_max":0,"o":"m 356 -14 b 640 226 517 -14 640 61 l 640 229 b 415 450 640 365 519 415 b 264 539 335 478 264 497 l 264 542 b 342 593 264 571 290 593 b 543 524 396 593 469 567 l 624 669 b 346 756 543 724 440 756 b 74 519 196 756 74 671 l 74 517 b 296 293 74 372 192 324 b 450 207 378 268 450 253 l 450 204 b 361 149 450 171 422 149 b 126 238 292 149 207 179 l 36 99 b 356 -14 135 21 251 -14 z "},"t":{"ha":576,"x_min":0,"x_max":0,"o":"m 346 -12 b 513 31 417 -12 468 4 l 513 200 b 408 174 482 183 447 174 b 340 246 361 174 340 197 l 340 564 l 515 564 l 515 744 l 340 744 l 340 935 l 129 935 l 129 744 l 40 744 l 40 564 l 129 564 l 129 211 b 346 -12 129 39 217 -12 z "},"u":{"ha":865,"x_min":0,"x_max":0,"o":"m 342 -14 b 560 106 449 -14 511 43 l 560 0 l 771 0 l 771 744 l 560 744 l 560 329 b 428 178 560 229 508 178 b 300 329 347 178 300 229 l 300 744 l 89 744 l 89 263 b 342 -14 89 92 182 -14 z "},"v":{"ha":833,"x_min":0,"x_max":0,"o":"m 321 -6 l 513 -6 l 806 744 l 586 744 l 418 246 l 251 744 l 28 744 z "},"w":{"ha":1196,"x_min":0,"x_max":0,"o":"m 263 -6 l 451 -6 l 597 451 l 740 -6 l 931 -6 l 1163 744 l 953 744 l 831 292 l 689 747 l 507 747 l 367 293 l 247 744 l 33 744 z "},"x":{"ha":811,"x_min":0,"x_max":0,"o":"m 268 744 l 42 744 l 293 378 l 32 0 l 253 0 l 403 232 l 553 0 l 779 0 l 517 381 l 768 744 l 547 744 l 407 526 z "},"y":{"ha":833,"x_min":0,"x_max":0,"o":"m 421 238 l 251 744 l 28 744 l 319 -3 b 246 -51 301 -40 282 -51 b 156 -22 218 -51 183 -39 l 85 -175 b 272 -226 139 -207 196 -226 b 517 -18 399 -226 460 -169 l 803 744 l 583 744 z "},"z":{"ha":782,"x_min":0,"x_max":0,"o":"m 69 0 l 717 0 l 717 171 l 331 171 l 717 596 l 717 744 l 82 744 l 82 574 l 454 574 l 69 149 z "},"Á":{"ha":1097,"x_min":0,"x_max":0,"o":"m 33 0 l 251 0 l 340 218 l 751 218 l 840 0 l 1064 0 l 647 979 l 450 979 z m 417 407 l 546 722 l 675 407 z m 463 1063 l 624 1063 l 813 1201 l 631 1281 z "},"á":{"ha":822,"x_min":0,"x_max":0,"o":"m 306 -14 b 531 81 408 -14 479 24 l 531 0 l 735 0 l 735 432 b 654 669 735 532 710 614 b 403 753 601 722 518 753 b 114 693 276 753 196 729 l 167 532 b 372 572 235 557 292 572 b 532 436 478 572 532 524 l 532 424 b 350 454 479 442 425 454 b 50 217 174 454 50 379 l 50 214 b 306 -14 50 67 165 -14 z m 369 132 b 254 222 301 132 254 165 l 254 225 b 400 328 254 292 310 328 b 535 300 451 328 499 317 l 535 263 b 369 132 535 186 468 132 z m 331 826 l 486 826 l 667 993 l 485 1072 z "},"Ă":{"ha":1097,"x_min":0,"x_max":0,"o":"m 33 0 l 251 0 l 340 218 l 751 218 l 840 0 l 1064 0 l 647 979 l 450 979 z m 417 407 l 546 722 l 675 407 z m 549 1060 b 813 1267 696 1060 800 1133 l 668 1267 b 549 1199 651 1224 618 1199 b 429 1267 479 1199 446 1224 l 285 1267 b 549 1060 297 1133 401 1060 z "},"ă":{"ha":822,"x_min":0,"x_max":0,"o":"m 306 -14 b 531 81 408 -14 479 24 l 531 0 l 735 0 l 735 432 b 654 669 735 532 710 614 b 403 753 601 722 518 753 b 114 693 276 753 196 729 l 167 532 b 372 572 235 557 292 572 b 532 436 478 572 532 524 l 532 424 b 350 454 479 442 425 454 b 50 217 174 454 50 379 l 50 214 b 306 -14 50 67 165 -14 z m 369 132 b 254 222 301 132 254 165 l 254 225 b 400 328 254 292 310 328 b 535 300 451 328 499 317 l 535 263 b 369 132 535 186 468 132 z m 414 824 b 675 1044 561 824 663 904 l 533 1044 b 414 961 517 994 483 961 b 294 1044 344 961 311 994 l 153 1044 b 414 824 165 904 267 824 z "},"Â":{"ha":1097,"x_min":0,"x_max":0,"o":"m 33 0 l 251 0 l 340 218 l 751 218 l 840 0 l 1064 0 l 647 979 l 450 979 z m 417 407 l 546 722 l 675 407 z m 271 1056 l 438 1056 l 547 1133 l 657 1056 l 826 1056 l 649 1260 l 449 1260 z "},"â":{"ha":822,"x_min":0,"x_max":0,"o":"m 306 -14 b 531 81 408 -14 479 24 l 531 0 l 735 0 l 735 432 b 654 669 735 532 710 614 b 403 753 601 722 518 753 b 114 693 276 753 196 729 l 167 532 b 372 572 235 557 292 572 b 532 436 478 572 532 524 l 532 424 b 350 454 479 442 425 454 b 50 217 174 454 50 379 l 50 214 b 306 -14 50 67 165 -14 z m 369 132 b 254 222 301 132 254 165 l 254 225 b 400 328 254 292 310 328 b 535 300 451 328 499 317 l 535 263 b 369 132 535 186 468 132 z m 143 826 l 303 826 l 413 918 l 522 826 l 685 826 l 514 1044 l 314 1044 z "},"Ä":{"ha":1097,"x_min":0,"x_max":0,"o":"m 33 0 l 251 0 l 340 218 l 751 218 l 840 0 l 1064 0 l 647 979 l 450 979 z m 417 407 l 546 722 l 675 407 z m 599 1063 l 801 1063 l 801 1239 l 599 1239 z m 296 1063 l 499 1063 l 499 1239 l 296 1239 z "},"ä":{"ha":822,"x_min":0,"x_max":0,"o":"m 306 -14 b 531 81 408 -14 479 24 l 531 0 l 735 0 l 735 432 b 654 669 735 532 710 614 b 403 753 601 722 518 753 b 114 693 276 753 196 729 l 167 532 b 372 572 235 557 292 572 b 532 436 478 572 532 524 l 532 424 b 350 454 479 442 425 454 b 50 217 174 454 50 379 l 50 214 b 306 -14 50 67 165 -14 z m 369 132 b 254 222 301 132 254 165 l 254 225 b 400 328 254 292 310 328 b 535 300 451 328 499 317 l 535 263 b 369 132 535 186 468 132 z m 457 826 l 660 826 l 660 1014 l 457 1014 z m 168 826 l 371 826 l 371 1014 l 168 1014 z "},"Æ":{"ha":1451,"x_min":0,"x_max":0,"o":"m 13 0 l 231 0 l 346 218 l 672 218 l 672 0 l 1378 0 l 1378 190 l 885 190 l 885 394 l 1308 394 l 1308 585 l 885 585 l 885 782 l 1371 782 l 1371 972 l 536 972 z m 446 407 l 647 788 l 672 788 l 672 407 z "},"æ":{"ha":1321,"x_min":0,"x_max":0,"o":"m 331 -14 b 633 96 449 -14 549 33 b 917 -17 703 25 803 -17 b 1221 122 1051 -17 1151 36 l 1100 229 b 919 153 1042 175 990 153 b 738 299 825 153 758 203 l 1256 299 b 1258 354 1257 318 1258 338 b 901 758 1258 565 1143 758 b 656 658 800 758 717 721 b 403 753 606 719 525 753 b 114 693 276 753 196 729 l 167 532 b 372 572 235 557 292 572 b 532 436 478 572 532 524 l 532 424 b 350 454 479 442 425 454 b 50 217 174 454 50 379 l 50 214 b 331 -14 50 69 169 -14 z m 735 431 b 896 589 751 526 808 589 b 1053 431 985 589 1040 525 z m 369 135 b 254 222 306 135 254 168 l 254 225 b 400 328 254 292 310 328 b 533 301 450 328 497 317 b 560 206 538 267 547 235 b 369 135 497 157 432 135 z "},"Ǽ":{"ha":1451,"x_min":0,"x_max":0,"o":"m 13 0 l 231 0 l 346 218 l 672 218 l 672 0 l 1378 0 l 1378 190 l 885 190 l 885 394 l 1308 394 l 1308 585 l 885 585 l 885 782 l 1371 782 l 1371 972 l 536 972 z m 446 407 l 647 788 l 672 788 l 672 407 z m 769 1049 l 931 1049 l 1119 1188 l 938 1267 z "},"ǽ":{"ha":1321,"x_min":0,"x_max":0,"o":"m 331 -14 b 633 96 449 -14 549 33 b 917 -17 703 25 803 -17 b 1221 122 1051 -17 1151 36 l 1100 229 b 919 153 1042 175 990 153 b 738 299 825 153 758 203 l 1256 299 b 1258 354 1257 318 1258 338 b 901 758 1258 565 1143 758 b 656 658 800 758 717 721 b 403 753 606 719 525 753 b 114 693 276 753 196 729 l 167 532 b 372 572 235 557 292 572 b 532 436 478 572 532 524 l 532 424 b 350 454 479 442 425 454 b 50 217 174 454 50 379 l 50 214 b 331 -14 50 69 169 -14 z m 735 431 b 896 589 751 526 808 589 b 1053 431 985 589 1040 525 z m 369 135 b 254 222 306 135 254 168 l 254 225 b 400 328 254 292 310 328 b 533 301 450 328 497 317 b 560 206 538 267 547 235 b 369 135 497 157 432 135 z m 571 826 l 726 826 l 907 993 l 725 1072 z "},"À":{"ha":1097,"x_min":0,"x_max":0,"o":"m 33 0 l 251 0 l 340 218 l 751 218 l 840 0 l 1064 0 l 647 979 l 450 979 z m 417 407 l 546 722 l 675 407 z m 635 1063 l 467 1281 l 285 1201 l 474 1063 z "},"à":{"ha":822,"x_min":0,"x_max":0,"o":"m 306 -14 b 531 81 408 -14 479 24 l 531 0 l 735 0 l 735 432 b 654 669 735 532 710 614 b 403 753 601 722 518 753 b 114 693 276 753 196 729 l 167 532 b 372 572 235 557 292 572 b 532 436 478 572 532 524 l 532 424 b 350 454 479 442 425 454 b 50 217 174 454 50 379 l 50 214 b 306 -14 50 67 165 -14 z m 369 132 b 254 222 301 132 254 165 l 254 225 b 400 328 254 292 310 328 b 535 300 451 328 499 317 l 535 263 b 369 132 535 186 468 132 z m 342 826 l 497 826 l 343 1072 l 161 993 z "},"Ā":{"ha":1097,"x_min":0,"x_max":0,"o":"m 33 0 l 251 0 l 340 218 l 751 218 l 840 0 l 1064 0 l 647 979 l 450 979 z m 417 407 l 546 722 l 675 407 z m 285 1069 l 813 1069 l 813 1218 l 285 1218 z "},"ā":{"ha":822,"x_min":0,"x_max":0,"o":"m 306 -14 b 531 81 408 -14 479 24 l 531 0 l 735 0 l 735 432 b 654 669 735 532 710 614 b 403 753 601 722 518 753 b 114 693 276 753 196 729 l 167 532 b 372 572 235 557 292 572 b 532 436 478 572 532 524 l 532 424 b 350 454 479 442 425 454 b 50 217 174 454 50 379 l 50 214 b 306 -14 50 67 165 -14 z m 369 132 b 254 222 301 132 254 165 l 254 225 b 400 328 254 292 310 328 b 535 300 451 328 499 317 l 535 263 b 369 132 535 186 468 132 z m 164 833 l 664 833 l 664 979 l 164 979 z "},"Ą":{"ha":1097,"x_min":0,"x_max":0,"o":"m 1074 -135 b 976 -78 1013 -137 976 -118 b 1011 0 976 -56 986 -29 l 1064 0 l 647 979 l 450 979 l 33 0 l 251 0 l 340 218 l 751 218 l 840 0 l 871 0 b 825 -111 843 -36 825 -71 b 1011 -232 825 -179 890 -232 b 1074 -228 1029 -232 1051 -231 z m 417 407 l 546 722 l 675 407 z "},"ą":{"ha":822,"x_min":0,"x_max":0,"o":"m 739 -135 b 642 -78 678 -137 642 -118 b 676 0 642 -56 651 -29 l 735 0 l 735 432 b 654 669 735 532 710 614 b 403 753 601 722 518 753 b 114 693 276 753 196 729 l 167 532 b 372 572 235 557 292 572 b 532 436 478 572 532 524 l 532 424 b 350 454 479 442 425 454 b 50 217 174 454 50 379 l 50 214 b 306 -14 50 67 165 -14 b 531 81 408 -14 479 24 l 531 0 l 536 0 b 490 -111 508 -36 490 -71 b 676 -232 490 -179 556 -232 b 739 -228 694 -232 717 -231 z m 369 132 b 254 222 301 132 254 165 l 254 225 b 400 328 254 292 310 328 b 535 300 451 328 499 317 l 535 263 b 369 132 535 186 468 132 z "},"Å":{"ha":1097,"x_min":0,"x_max":0,"o":"m 33 0 l 251 0 l 340 218 l 751 218 l 840 0 l 1064 0 l 672 922 b 721 1031 701 949 721 986 b 549 1183 721 1121 642 1183 b 376 1031 456 1183 376 1121 b 425 922 376 986 394 949 z m 417 407 l 546 722 l 675 407 z m 549 953 b 461 1031 496 953 461 988 b 549 1108 461 1074 496 1108 b 636 1031 601 1108 636 1074 b 549 953 636 988 601 953 z "},"å":{"ha":822,"x_min":0,"x_max":0,"o":"m 306 -14 b 531 81 408 -14 479 24 l 531 0 l 735 0 l 735 432 b 654 669 735 532 710 614 b 403 753 601 722 518 753 b 114 693 276 753 196 729 l 167 532 b 372 572 235 557 292 572 b 532 436 478 572 532 524 l 532 424 b 350 454 479 442 425 454 b 50 217 174 454 50 379 l 50 214 b 306 -14 50 67 165 -14 z m 369 132 b 254 222 301 132 254 165 l 254 225 b 400 328 254 292 310 328 b 535 300 451 328 499 317 l 535 263 b 369 132 535 186 468 132 z m 414 824 b 582 986 507 824 582 896 b 414 1149 582 1076 507 1149 b 246 986 321 1149 246 1076 b 414 824 246 896 321 824 z m 414 894 b 322 986 364 894 322 936 b 414 1078 322 1036 364 1078 b 506 986 464 1078 506 1036 b 414 894 506 936 464 894 z "},"Ǻ":{"ha":1097,"x_min":0,"x_max":0,"o":"m 33 0 l 251 0 l 340 218 l 751 218 l 840 0 l 1064 0 l 672 922 b 721 1031 701 949 721 986 b 549 1183 721 1121 642 1183 b 376 1031 456 1183 376 1121 b 425 922 376 986 394 949 z m 417 407 l 546 722 l 675 407 z m 454 1222 l 615 1222 l 813 1333 l 631 1413 z m 549 953 b 461 1031 496 953 461 988 b 549 1108 461 1074 496 1108 b 636 1031 601 1108 636 1074 b 549 953 636 988 601 953 z "},"ǻ":{"ha":822,"x_min":0,"x_max":0,"o":"m 329 1196 l 485 1196 l 674 1321 l 494 1400 z m 306 -14 b 531 81 408 -14 479 24 l 531 0 l 735 0 l 735 432 b 654 669 735 532 710 614 b 403 753 601 722 518 753 b 114 693 276 753 196 729 l 167 532 b 372 572 235 557 292 572 b 532 436 478 572 532 524 l 532 424 b 350 454 479 442 425 454 b 50 217 174 454 50 379 l 50 214 b 306 -14 50 67 165 -14 z m 369 132 b 254 222 301 132 254 165 l 254 225 b 400 328 254 292 310 328 b 535 300 451 328 499 317 l 535 263 b 369 132 535 186 468 132 z m 414 824 b 582 986 507 824 582 896 b 414 1149 582 1076 507 1149 b 246 986 321 1149 246 1076 b 414 824 246 896 321 824 z m 414 894 b 322 986 364 894 322 936 b 414 1078 322 1036 364 1078 b 506 986 464 1078 506 1036 b 414 894 506 936 464 894 z "},"Ã":{"ha":1097,"x_min":0,"x_max":0,"o":"m 33 0 l 251 0 l 340 218 l 751 218 l 840 0 l 1064 0 l 647 979 l 450 979 z m 417 407 l 546 722 l 675 407 z m 674 1063 b 847 1254 771 1063 815 1138 l 735 1289 b 654 1221 715 1244 697 1221 b 572 1243 632 1221 606 1231 b 438 1275 532 1258 485 1275 b 264 1083 340 1275 296 1200 l 376 1049 b 457 1117 396 1093 414 1117 b 539 1094 479 1117 506 1107 b 674 1063 579 1079 626 1063 z "},"ã":{"ha":822,"x_min":0,"x_max":0,"o":"m 306 -14 b 531 81 408 -14 479 24 l 531 0 l 735 0 l 735 432 b 654 669 735 532 710 614 b 403 753 601 722 518 753 b 114 693 276 753 196 729 l 167 532 b 372 572 235 557 292 572 b 532 436 478 572 532 524 l 532 424 b 350 454 479 442 425 454 b 50 217 174 454 50 379 l 50 214 b 306 -14 50 67 165 -14 z m 369 132 b 254 222 301 132 254 165 l 254 225 b 400 328 254 292 310 328 b 535 300 451 328 499 317 l 535 263 b 369 132 535 186 468 132 z m 535 826 b 707 1018 632 826 675 901 l 594 1053 b 515 985 575 1008 558 985 b 433 1008 493 985 465 996 b 307 1039 399 1022 354 1039 b 135 847 210 1039 167 964 l 247 813 b 326 881 267 857 283 881 b 408 857 349 881 376 869 b 535 826 443 843 488 826 z "},"Ć":{"ha":1025,"x_min":0,"x_max":0,"o":"m 572 -17 b 971 157 760 -17 871 50 l 835 294 b 579 181 758 225 690 181 b 297 486 413 181 297 319 l 297 489 b 579 792 297 656 415 792 b 828 682 676 792 753 750 l 964 839 b 581 989 874 928 764 989 b 74 486 282 989 74 763 l 74 483 b 572 -17 74 204 286 -17 z m 476 1063 l 638 1063 l 826 1201 l 644 1281 z "},"ć":{"ha":793,"x_min":0,"x_max":0,"o":"m 446 -17 b 750 119 594 -17 678 40 l 626 244 b 456 165 575 196 526 165 b 267 371 340 165 267 257 l 267 374 b 447 576 267 483 342 576 b 617 494 522 576 569 544 l 746 633 b 449 758 676 711 589 758 b 58 371 221 758 58 583 l 58 368 b 446 -17 58 156 222 -17 z m 357 826 l 513 826 l 693 993 l 511 1072 z "},"Č":{"ha":1025,"x_min":0,"x_max":0,"o":"m 572 -17 b 971 157 760 -17 871 50 l 835 294 b 579 181 758 225 690 181 b 297 486 413 181 297 319 l 297 489 b 579 792 297 656 415 792 b 828 682 676 792 753 750 l 964 839 b 581 989 874 928 764 989 b 74 486 282 989 74 763 l 74 483 b 572 -17 74 204 286 -17 z m 840 1267 l 674 1267 l 564 1189 l 454 1267 l 285 1267 l 463 1063 l 663 1063 z "},"č":{"ha":793,"x_min":0,"x_max":0,"o":"m 446 -17 b 750 119 594 -17 678 40 l 626 244 b 456 165 575 196 526 165 b 267 371 340 165 267 257 l 267 374 b 447 576 267 483 342 576 b 617 494 522 576 569 544 l 746 633 b 449 758 676 711 589 758 b 58 371 221 758 58 583 l 58 368 b 446 -17 58 156 222 -17 z m 711 1044 l 551 1044 l 442 953 l 332 1044 l 169 1044 l 340 826 l 540 826 z "},"Ç":{"ha":1025,"x_min":0,"x_max":0,"o":"m 518 -240 l 608 -15 b 971 157 774 -7 878 57 l 835 294 b 579 181 758 225 690 181 b 297 486 413 181 297 319 l 297 489 b 579 792 297 656 415 792 b 828 682 676 792 753 750 l 964 839 b 581 989 874 928 764 989 b 74 486 282 989 74 763 l 74 483 b 453 -3 74 244 229 47 l 342 -167 z "},"ç":{"ha":793,"x_min":0,"x_max":0,"o":"m 390 -240 l 481 -15 b 750 119 608 -7 683 46 l 626 244 b 456 165 575 196 526 165 b 267 371 340 165 267 257 l 267 374 b 447 576 267 483 342 576 b 617 494 522 576 569 544 l 746 633 b 449 758 676 711 589 758 b 58 371 221 758 58 583 l 58 368 b 328 0 58 194 167 47 l 214 -167 z "},"Ċ":{"ha":1025,"x_min":0,"x_max":0,"o":"m 572 -17 b 971 157 760 -17 871 50 l 835 294 b 579 181 758 225 690 181 b 297 486 413 181 297 319 l 297 489 b 579 792 297 656 415 792 b 828 682 676 792 753 750 l 964 839 b 581 989 874 928 764 989 b 74 486 282 989 74 763 l 74 483 b 572 -17 74 204 286 -17 z m 458 1063 l 667 1063 l 667 1239 l 458 1239 z "},"ċ":{"ha":793,"x_min":0,"x_max":0,"o":"m 446 -17 b 750 119 594 -17 678 40 l 626 244 b 456 165 575 196 526 165 b 267 371 340 165 267 257 l 267 374 b 447 576 267 483 342 576 b 617 494 522 576 569 544 l 746 633 b 449 758 676 711 589 758 b 58 371 221 758 58 583 l 58 368 b 446 -17 58 156 222 -17 z m 336 826 l 544 826 l 544 1014 l 336 1014 z "},"Ď":{"ha":1086,"x_min":0,"x_max":0,"o":"m 117 0 l 496 0 b 1013 486 801 0 1013 213 l 1013 489 b 496 972 1013 763 801 972 l 117 972 z m 496 779 b 789 486 671 779 789 658 l 789 483 b 496 193 789 311 671 193 l 331 193 l 331 779 z m 803 1253 l 636 1253 l 526 1175 l 417 1253 l 247 1253 l 425 1049 l 625 1049 z "},"ď":{"ha":938,"x_min":0,"x_max":0,"o":"m 400 -14 b 632 107 510 -14 581 38 l 632 0 l 843 0 l 843 1014 l 632 1014 l 632 647 b 400 758 582 707 513 758 b 61 374 224 758 61 622 l 61 371 b 400 -14 61 122 226 -14 z m 454 165 b 272 371 356 165 272 247 l 272 374 b 454 579 272 499 356 579 b 635 374 553 579 635 497 l 635 371 b 454 165 635 247 553 165 z m 913 822 l 996 822 l 1078 1107 l 1078 1111 l 926 1111 z "},"Đ":{"ha":1128,"x_min":0,"x_max":0,"o":"m 158 0 l 538 0 b 1054 486 843 0 1054 213 l 1054 489 b 538 972 1054 763 843 972 l 158 972 l 158 583 l 54 583 l 54 394 l 158 394 z m 581 394 l 581 583 l 372 583 l 372 779 l 538 779 b 831 486 713 779 831 658 l 831 483 b 538 193 831 311 713 193 l 372 193 l 372 394 z "},"đ":{"ha":938,"x_min":0,"x_max":0,"o":"m 417 824 l 632 824 l 632 647 b 400 758 582 707 513 758 b 61 374 224 758 61 622 l 61 371 b 400 -14 61 122 226 -14 b 632 107 510 -14 581 38 l 632 0 l 843 0 l 843 824 l 938 824 l 938 942 l 843 942 l 843 1014 l 632 1014 l 632 942 l 417 942 z m 454 165 b 272 371 356 165 272 247 l 272 374 b 454 579 272 499 356 579 b 635 374 553 579 635 497 l 635 371 b 454 165 635 247 553 165 z "},"É":{"ha":931,"x_min":0,"x_max":0,"o":"m 117 0 l 857 0 l 857 190 l 329 190 l 329 394 l 788 394 l 788 585 l 329 585 l 329 782 l 850 782 l 850 972 l 117 972 z m 400 1049 l 561 1049 l 750 1188 l 568 1267 z "},"é":{"ha":851,"x_min":0,"x_max":0,"o":"m 447 -17 b 751 122 582 -17 682 36 l 631 229 b 450 153 572 175 521 153 b 268 299 356 153 289 203 l 786 299 b 789 354 788 318 789 338 b 426 758 789 565 675 758 b 58 371 210 758 58 583 l 58 368 b 447 -17 58 140 224 -17 z m 265 431 b 426 589 282 526 339 589 b 583 431 515 589 571 525 z m 340 826 l 496 826 l 676 993 l 494 1072 z "},"Ĕ":{"ha":931,"x_min":0,"x_max":0,"o":"m 117 0 l 857 0 l 857 190 l 329 190 l 329 394 l 788 394 l 788 585 l 329 585 l 329 782 l 850 782 l 850 972 l 117 972 z m 486 1046 b 750 1253 633 1046 738 1119 l 606 1253 b 486 1185 589 1210 556 1185 b 367 1253 417 1185 383 1210 l 222 1253 b 486 1046 235 1119 339 1046 z "},"ĕ":{"ha":851,"x_min":0,"x_max":0,"o":"m 447 -17 b 751 122 582 -17 682 36 l 631 229 b 450 153 572 175 521 153 b 268 299 356 153 289 203 l 786 299 b 789 354 788 318 789 338 b 426 758 789 565 675 758 b 58 371 210 758 58 583 l 58 368 b 447 -17 58 140 224 -17 z m 265 431 b 426 589 282 526 339 589 b 583 431 515 589 571 525 z m 424 824 b 685 1044 571 824 672 904 l 543 1044 b 424 961 526 994 493 961 b 304 1044 354 961 321 994 l 163 1044 b 424 824 175 904 276 824 z "},"Ě":{"ha":931,"x_min":0,"x_max":0,"o":"m 117 0 l 857 0 l 857 190 l 329 190 l 329 394 l 788 394 l 788 585 l 329 585 l 329 782 l 850 782 l 850 972 l 117 972 z m 764 1253 l 597 1253 l 488 1175 l 378 1253 l 208 1253 l 386 1049 l 586 1049 z "},"ě":{"ha":851,"x_min":0,"x_max":0,"o":"m 447 -17 b 751 122 582 -17 682 36 l 631 229 b 450 153 572 175 521 153 b 268 299 356 153 289 203 l 786 299 b 789 354 788 318 789 338 b 426 758 789 565 675 758 b 58 371 210 758 58 583 l 58 368 b 447 -17 58 140 224 -17 z m 265 431 b 426 589 282 526 339 589 b 583 431 515 589 571 525 z m 694 1044 l 535 1044 l 425 953 l 315 1044 l 153 1044 l 324 826 l 524 826 z "},"Ê":{"ha":931,"x_min":0,"x_max":0,"o":"m 117 0 l 857 0 l 857 190 l 329 190 l 329 394 l 788 394 l 788 585 l 329 585 l 329 782 l 850 782 l 850 972 l 117 972 z m 208 1049 l 375 1049 l 485 1126 l 594 1049 l 764 1049 l 586 1253 l 386 1253 z "},"ê":{"ha":851,"x_min":0,"x_max":0,"o":"m 447 -17 b 751 122 582 -17 682 36 l 631 229 b 450 153 572 175 521 153 b 268 299 356 153 289 203 l 786 299 b 789 354 788 318 789 338 b 426 758 789 565 675 758 b 58 371 210 758 58 583 l 58 368 b 447 -17 58 140 224 -17 z m 265 431 b 426 589 282 526 339 589 b 583 431 515 589 571 525 z m 153 826 l 313 826 l 422 918 l 532 826 l 694 826 l 524 1044 l 324 1044 z "},"Ë":{"ha":931,"x_min":0,"x_max":0,"o":"m 117 0 l 857 0 l 857 190 l 329 190 l 329 394 l 788 394 l 788 585 l 329 585 l 329 782 l 850 782 l 850 972 l 117 972 z m 536 1049 l 739 1049 l 739 1225 l 536 1225 z m 233 1049 l 436 1049 l 436 1225 l 233 1225 z "},"ë":{"ha":851,"x_min":0,"x_max":0,"o":"m 447 -17 b 751 122 582 -17 682 36 l 631 229 b 450 153 572 175 521 153 b 268 299 356 153 289 203 l 786 299 b 789 354 788 318 789 338 b 426 758 789 565 675 758 b 58 371 210 758 58 583 l 58 368 b 447 -17 58 140 224 -17 z m 265 431 b 426 589 282 526 339 589 b 583 431 515 589 571 525 z m 467 826 l 669 826 l 669 1014 l 467 1014 z m 178 826 l 381 826 l 381 1014 l 178 1014 z "},"Ė":{"ha":931,"x_min":0,"x_max":0,"o":"m 117 0 l 857 0 l 857 190 l 329 190 l 329 394 l 788 394 l 788 585 l 329 585 l 329 782 l 850 782 l 850 972 l 117 972 z m 382 1049 l 590 1049 l 590 1225 l 382 1225 z "},"ė":{"ha":851,"x_min":0,"x_max":0,"o":"m 447 -17 b 751 122 582 -17 682 36 l 631 229 b 450 153 572 175 521 153 b 268 299 356 153 289 203 l 786 299 b 789 354 788 318 789 338 b 426 758 789 565 675 758 b 58 371 210 758 58 583 l 58 368 b 447 -17 58 140 224 -17 z m 265 431 b 426 589 282 526 339 589 b 583 431 515 589 571 525 z m 319 826 l 528 826 l 528 1014 l 319 1014 z "},"È":{"ha":931,"x_min":0,"x_max":0,"o":"m 117 0 l 857 0 l 857 190 l 329 190 l 329 394 l 788 394 l 788 585 l 329 585 l 329 782 l 850 782 l 850 972 l 117 972 z m 572 1049 l 404 1267 l 222 1188 l 411 1049 z "},"è":{"ha":851,"x_min":0,"x_max":0,"o":"m 447 -17 b 751 122 582 -17 682 36 l 631 229 b 450 153 572 175 521 153 b 268 299 356 153 289 203 l 786 299 b 789 354 788 318 789 338 b 426 758 789 565 675 758 b 58 371 210 758 58 583 l 58 368 b 447 -17 58 140 224 -17 z m 265 431 b 426 589 282 526 339 589 b 583 431 515 589 571 525 z m 351 826 l 507 826 l 353 1072 l 171 993 z "},"Ē":{"ha":931,"x_min":0,"x_max":0,"o":"m 117 0 l 857 0 l 857 190 l 329 190 l 329 394 l 788 394 l 788 585 l 329 585 l 329 782 l 850 782 l 850 972 l 117 972 z m 222 1056 l 750 1056 l 750 1204 l 222 1204 z "},"ē":{"ha":851,"x_min":0,"x_max":0,"o":"m 447 -17 b 751 122 582 -17 682 36 l 631 229 b 450 153 572 175 521 153 b 268 299 356 153 289 203 l 786 299 b 789 354 788 318 789 338 b 426 758 789 565 675 758 b 58 371 210 758 58 583 l 58 368 b 447 -17 58 140 224 -17 z m 265 431 b 426 589 282 526 339 589 b 583 431 515 589 571 525 z m 174 833 l 674 833 l 674 979 l 174 979 z "},"Ę":{"ha":931,"x_min":0,"x_max":0,"o":"m 117 0 l 654 0 b 608 -111 626 -36 608 -71 b 794 -232 608 -179 674 -232 b 857 -228 813 -232 835 -231 l 857 -135 b 760 -78 796 -137 760 -118 b 794 0 760 -56 769 -29 l 857 0 l 857 190 l 329 190 l 329 394 l 788 394 l 788 585 l 329 585 l 329 782 l 850 782 l 850 972 l 117 972 z "},"ę":{"ha":851,"x_min":0,"x_max":0,"o":"m 265 431 b 426 589 282 526 339 589 b 583 431 515 589 571 525 z m 631 229 b 450 153 572 175 521 153 b 268 299 356 153 289 203 l 786 299 b 789 354 788 318 789 338 b 426 758 789 565 675 758 b 58 371 210 758 58 583 l 58 368 b 447 -17 58 140 224 -17 b 496 -14 461 -17 483 -15 b 451 -118 468 -50 451 -85 b 636 -232 451 -181 515 -232 b 700 -228 656 -232 678 -231 l 700 -135 b 603 -71 639 -137 603 -118 b 667 36 603 -42 624 -4 b 751 122 699 65 721 88 z "},"Ð":{"ha":1128,"x_min":0,"x_max":0,"o":"m 158 0 l 538 0 b 1054 486 843 0 1054 213 l 1054 489 b 538 972 1054 763 843 972 l 158 972 l 158 583 l 54 583 l 54 394 l 158 394 z m 581 394 l 581 583 l 372 583 l 372 779 l 538 779 b 831 486 713 779 831 658 l 831 483 b 538 193 831 311 713 193 l 372 193 l 372 394 z "},"ð":{"ha":924,"x_min":0,"x_max":0,"o":"m 747 907 l 713 1017 l 546 975 l 499 1014 l 219 1014 b 340 924 258 986 300 956 l 235 897 l 271 786 l 443 829 b 560 693 490 783 531 736 b 389 742 504 725 458 742 b 58 382 204 742 58 583 l 58 379 b 460 -17 58 154 229 -17 b 863 404 714 -17 863 178 l 863 407 b 644 881 863 592 769 750 z m 463 165 b 267 368 346 165 267 258 l 267 371 b 460 571 267 481 339 571 b 656 368 576 571 656 478 l 656 365 b 463 165 656 256 583 165 z "},"Ğ":{"ha":1089,"x_min":0,"x_max":0,"o":"m 585 -17 b 1000 138 763 -17 900 53 l 1000 560 l 578 560 l 578 375 l 793 375 l 793 236 b 592 178 739 197 669 178 b 297 486 419 178 297 308 l 297 489 b 576 792 297 654 421 792 b 831 693 689 792 756 756 l 965 856 b 583 989 864 942 758 989 b 74 486 289 989 74 763 l 74 483 b 585 -17 74 196 282 -17 z m 572 1060 b 836 1267 719 1060 824 1133 l 692 1267 b 572 1199 675 1224 642 1199 b 453 1267 503 1199 469 1224 l 308 1267 b 572 1060 321 1133 425 1060 z "},"ğ":{"ha":938,"x_min":0,"x_max":0,"o":"m 428 -225 b 749 -125 572 -225 679 -194 b 843 168 811 -62 843 35 l 843 744 l 632 744 l 632 647 b 392 758 575 710 507 758 b 61 411 221 758 61 633 l 61 408 b 392 61 61 188 218 61 b 635 182 504 61 572 107 l 635 146 b 422 -57 635 13 567 -57 b 171 11 324 -57 247 -32 l 99 -147 b 428 -225 193 -197 307 -225 z m 453 236 b 272 408 350 236 272 306 l 272 411 b 453 583 272 513 350 583 b 635 411 556 583 635 513 l 635 408 b 453 236 635 307 556 236 z m 479 824 b 740 1044 626 824 728 904 l 599 1044 b 479 961 582 994 549 961 b 360 1044 410 961 376 994 l 218 1044 b 479 824 231 904 332 824 z "},"Ģ":{"ha":1089,"x_min":0,"x_max":0,"o":"m 585 -17 b 1000 138 763 -17 900 53 l 1000 560 l 578 560 l 578 375 l 793 375 l 793 236 b 592 178 739 197 669 178 b 297 486 419 178 297 308 l 297 489 b 576 792 297 654 421 792 b 831 693 689 792 756 756 l 965 856 b 583 989 864 942 758 989 b 74 486 289 989 74 763 l 74 483 b 585 -17 74 196 282 -17 z m 471 -412 b 668 -224 599 -410 668 -357 l 668 -89 l 476 -89 l 476 -249 l 565 -249 b 460 -349 569 -307 533 -342 z "},"ģ":{"ha":938,"x_min":0,"x_max":0,"o":"m 428 -225 b 749 -125 572 -225 679 -194 b 843 168 811 -62 843 35 l 843 744 l 632 744 l 632 647 b 392 758 575 710 507 758 b 61 411 221 758 61 633 l 61 408 b 392 61 61 188 218 61 b 635 182 504 61 572 107 l 635 146 b 422 -57 635 13 567 -57 b 171 11 324 -57 247 -32 l 99 -147 b 428 -225 193 -197 307 -225 z m 453 236 b 272 408 350 236 272 306 l 272 411 b 453 583 272 513 350 583 b 635 411 556 583 635 513 l 635 408 b 453 236 635 307 556 236 z m 576 1150 b 379 961 449 1147 379 1094 l 379 826 l 571 826 l 571 986 l 482 986 b 588 1086 478 1044 514 1079 z "},"Ġ":{"ha":1089,"x_min":0,"x_max":0,"o":"m 585 -17 b 1000 138 763 -17 900 53 l 1000 560 l 578 560 l 578 375 l 793 375 l 793 236 b 592 178 739 197 669 178 b 297 486 419 178 297 308 l 297 489 b 576 792 297 654 421 792 b 831 693 689 792 756 756 l 965 856 b 583 989 864 942 758 989 b 74 486 289 989 74 763 l 74 483 b 585 -17 74 196 282 -17 z m 468 1063 l 676 1063 l 676 1239 l 468 1239 z "},"ġ":{"ha":938,"x_min":0,"x_max":0,"o":"m 428 -225 b 749 -125 572 -225 679 -194 b 843 168 811 -62 843 35 l 843 744 l 632 744 l 632 647 b 392 758 575 710 507 758 b 61 411 221 758 61 633 l 61 408 b 392 61 61 188 218 61 b 635 182 504 61 572 107 l 635 146 b 422 -57 635 13 567 -57 b 171 11 324 -57 247 -32 l 99 -147 b 428 -225 193 -197 307 -225 z m 453 236 b 272 408 350 236 272 306 l 272 411 b 453 583 272 513 350 583 b 635 411 556 583 635 513 l 635 408 b 453 236 635 307 556 236 z m 375 826 l 583 826 l 583 1014 l 375 1014 z "},"Ħ":{"ha":1056,"x_min":0,"x_max":0,"o":"m 19 711 l 117 711 l 117 0 l 331 0 l 331 390 l 725 390 l 725 0 l 939 0 l 939 711 l 1036 711 l 1036 857 l 939 857 l 939 972 l 725 972 l 725 857 l 331 857 l 331 972 l 117 972 l 117 857 l 19 857 z m 331 588 l 331 714 l 725 714 l 725 588 z "},"ħ":{"ha":865,"x_min":0,"x_max":0,"o":"m 521 824 l 521 942 l 306 942 l 306 1014 l 94 1014 l 94 942 l 0 942 l 0 824 l 94 824 l 94 0 l 306 0 l 306 415 b 438 567 306 515 357 567 b 565 415 518 567 565 515 l 565 0 l 776 0 l 776 482 b 524 758 776 653 683 758 b 306 639 417 758 354 701 l 306 824 z "},"Í":{"ha":467,"x_min":0,"x_max":0,"o":"m 126 0 l 340 0 l 340 972 l 126 972 z m 147 1049 l 308 1049 l 497 1188 l 315 1267 z "},"í":{"ha":419,"x_min":0,"x_max":0,"o":"m 104 0 l 315 0 l 315 744 l 104 744 z m 126 826 l 282 826 l 463 993 l 281 1072 z "},"Ĭ":{"ha":467,"x_min":0,"x_max":0,"o":"m 126 0 l 340 0 l 340 972 l 126 972 z m 233 1046 b 497 1253 381 1046 485 1119 l 353 1253 b 233 1185 336 1210 303 1185 b 114 1253 164 1185 131 1210 l -31 1253 b 233 1046 -18 1119 86 1046 z "},"ĭ":{"ha":419,"x_min":0,"x_max":0,"o":"m 104 0 l 315 0 l 315 744 l 104 744 z m 210 824 b 471 1044 357 824 458 904 l 329 1044 b 210 961 313 994 279 961 b 90 1044 140 961 107 994 l -51 1044 b 210 824 -39 904 63 824 z "},"Î":{"ha":467,"x_min":0,"x_max":0,"o":"m 126 0 l 340 0 l 340 972 l 126 972 z m -44 1049 l 122 1049 l 232 1126 l 342 1049 l 511 1049 l 333 1253 l 133 1253 z "},"î":{"ha":419,"x_min":0,"x_max":0,"o":"m 104 0 l 315 0 l 315 744 l 104 744 z m -61 826 l 99 826 l 208 918 l 318 826 l 481 826 l 310 1044 l 110 1044 z "},"Ï":{"ha":467,"x_min":0,"x_max":0,"o":"m 126 0 l 340 0 l 340 972 l 126 972 z m 283 1049 l 486 1049 l 486 1225 l 283 1225 z m -19 1049 l 183 1049 l 183 1225 l -19 1225 z "},"ï":{"ha":419,"x_min":0,"x_max":0,"o":"m 104 0 l 315 0 l 315 744 l 104 744 z m 253 826 l 456 826 l 456 1014 l 253 1014 z m -36 826 l 167 826 l 167 1014 l -36 1014 z "},"İ":{"ha":467,"x_min":0,"x_max":0,"o":"m 126 0 l 340 0 l 340 972 l 126 972 z m 129 1049 l 338 1049 l 338 1225 l 129 1225 z "},"ı":{"ha":419,"x_min":0,"x_max":0,"o":"m 104 0 l 315 0 l 315 744 l 104 744 z "},"Ì":{"ha":467,"x_min":0,"x_max":0,"o":"m 126 0 l 340 0 l 340 972 l 126 972 z m 319 1049 l 151 1267 l -31 1188 l 158 1049 z "},"ì":{"ha":419,"x_min":0,"x_max":0,"o":"m 104 0 l 315 0 l 315 744 l 104 744 z m 138 826 l 293 826 l 139 1072 l -43 993 z "},"Ī":{"ha":467,"x_min":0,"x_max":0,"o":"m 126 0 l 340 0 l 340 972 l 126 972 z m -31 1056 l 497 1056 l 497 1204 l -31 1204 z "},"ī":{"ha":419,"x_min":0,"x_max":0,"o":"m 104 0 l 315 0 l 315 744 l 104 744 z m -40 833 l 460 833 l 460 979 l -40 979 z "},"Į":{"ha":467,"x_min":0,"x_max":0,"o":"m 126 0 l 160 0 b 114 -111 132 -36 114 -71 b 300 -232 114 -179 179 -232 b 363 -228 318 -232 340 -231 l 363 -135 b 265 -78 301 -137 265 -118 b 300 0 265 -56 275 -29 l 340 0 l 340 972 l 126 972 z "},"į":{"ha":419,"x_min":0,"x_max":0,"o":"m 104 0 l 136 0 b 90 -111 108 -36 90 -71 b 276 -232 90 -179 156 -232 b 339 -228 294 -232 317 -231 l 339 -135 b 242 -78 278 -137 242 -118 b 276 0 242 -56 251 -29 l 315 0 l 315 744 l 104 744 z m 99 826 l 321 826 l 321 1014 l 99 1014 z "},"Ķ":{"ha":1014,"x_min":0,"x_max":0,"o":"m 117 0 l 331 0 l 331 297 l 443 414 l 744 0 l 1001 0 l 588 560 l 983 972 l 725 972 l 331 547 l 331 972 l 117 972 z m 407 -399 b 604 -210 535 -396 604 -343 l 604 -75 l 413 -75 l 413 -235 l 501 -235 b 396 -335 506 -293 469 -328 z "},"ķ":{"ha":822,"x_min":0,"x_max":0,"o":"m 94 0 l 306 0 l 306 226 l 381 306 l 571 0 l 815 0 l 522 451 l 806 744 l 553 744 l 306 474 l 306 1014 l 94 1014 z m 325 -406 b 522 -217 453 -403 522 -350 l 522 -82 l 331 -82 l 331 -242 l 419 -242 b 314 -342 424 -300 388 -335 z "},"Ĺ":{"ha":860,"x_min":0,"x_max":0,"o":"m 117 0 l 815 0 l 815 194 l 331 194 l 331 972 l 117 972 z m 165 1049 l 326 1049 l 515 1188 l 333 1267 z "},"ĺ":{"ha":419,"x_min":0,"x_max":0,"o":"m 104 0 l 315 0 l 315 1014 l 104 1014 z m 129 1069 l 290 1069 l 479 1208 l 297 1288 z "},"Ľ":{"ha":860,"x_min":0,"x_max":0,"o":"m 117 0 l 815 0 l 815 194 l 331 194 l 331 972 l 117 972 z m 426 683 l 510 683 l 592 968 l 592 972 l 440 972 z "},"ľ":{"ha":419,"x_min":0,"x_max":0,"o":"m 104 0 l 315 0 l 315 1014 l 104 1014 z m 385 822 l 468 822 l 550 1107 l 550 1111 l 399 1111 z "},"Ļ":{"ha":860,"x_min":0,"x_max":0,"o":"m 117 0 l 815 0 l 815 194 l 331 194 l 331 972 l 117 972 z m 364 -406 b 561 -217 492 -403 561 -350 l 561 -82 l 369 -82 l 369 -242 l 458 -242 b 353 -342 463 -300 426 -335 z "},"ļ":{"ha":419,"x_min":0,"x_max":0,"o":"m 104 0 l 315 0 l 315 1014 l 104 1014 z m 108 -406 b 306 -217 236 -403 306 -350 l 306 -82 l 114 -82 l 114 -242 l 203 -242 b 97 -342 207 -300 171 -335 z "},"Ŀ":{"ha":860,"x_min":0,"x_max":0,"o":"m 571 438 l 771 438 l 771 625 l 571 625 z m 117 0 l 815 0 l 815 194 l 331 194 l 331 972 l 117 972 z "},"ŀ":{"ha":544,"x_min":0,"x_max":0,"o":"m 399 439 l 565 439 l 565 613 l 399 613 z m 104 0 l 315 0 l 315 1014 l 104 1014 z "},"Ł":{"ha":901,"x_min":0,"x_max":0,"o":"m 576 522 l 576 722 l 369 631 l 369 972 l 158 972 l 158 538 l 54 492 l 54 292 l 158 338 l 158 0 l 857 0 l 857 194 l 369 194 l 369 431 z "},"ł":{"ha":503,"x_min":0,"x_max":0,"o":"m 461 524 l 461 722 l 356 669 l 356 1014 l 147 1014 l 147 565 l 42 514 l 42 315 l 147 367 l 147 0 l 356 0 l 356 471 z "},"Ń":{"ha":1097,"x_min":0,"x_max":0,"o":"m 117 0 l 328 0 l 328 618 l 799 0 l 981 0 l 981 972 l 769 972 l 769 374 l 314 972 l 117 972 z m 463 1049 l 624 1049 l 813 1188 l 631 1267 z "},"ń":{"ha":865,"x_min":0,"x_max":0,"o":"m 94 0 l 306 0 l 306 415 b 438 567 306 515 357 567 b 565 415 518 567 565 515 l 565 0 l 776 0 l 776 482 b 524 758 776 653 683 758 b 306 639 417 758 354 701 l 306 744 l 94 744 z m 351 826 l 507 826 l 688 993 l 506 1072 z "},"Ň":{"ha":1097,"x_min":0,"x_max":0,"o":"m 117 0 l 328 0 l 328 618 l 799 0 l 981 0 l 981 972 l 769 972 l 769 374 l 314 972 l 117 972 z m 826 1253 l 660 1253 l 550 1175 l 440 1253 l 271 1253 l 449 1049 l 649 1049 z "},"ň":{"ha":865,"x_min":0,"x_max":0,"o":"m 94 0 l 306 0 l 306 415 b 438 567 306 515 357 567 b 565 415 518 567 565 515 l 565 0 l 776 0 l 776 482 b 524 758 776 653 683 758 b 306 639 417 758 354 701 l 306 744 l 94 744 z m 706 1044 l 546 1044 l 436 953 l 326 1044 l 164 1044 l 335 826 l 535 826 z "},"Ņ":{"ha":1097,"x_min":0,"x_max":0,"o":"m 117 0 l 328 0 l 328 618 l 799 0 l 981 0 l 981 972 l 769 972 l 769 374 l 314 972 l 117 972 z m 447 -399 b 644 -210 575 -396 644 -343 l 644 -75 l 453 -75 l 453 -235 l 542 -235 b 436 -335 546 -293 510 -328 z "},"ņ":{"ha":865,"x_min":0,"x_max":0,"o":"m 94 0 l 306 0 l 306 415 b 438 567 306 515 357 567 b 565 415 518 567 565 515 l 565 0 l 776 0 l 776 482 b 524 758 776 653 683 758 b 306 639 417 758 354 701 l 306 744 l 94 744 z m 333 -406 b 531 -217 461 -403 531 -350 l 531 -82 l 339 -82 l 339 -242 l 428 -242 b 322 -342 432 -300 396 -335 z "},"Ñ":{"ha":1097,"x_min":0,"x_max":0,"o":"m 117 0 l 328 0 l 328 618 l 799 0 l 981 0 l 981 972 l 769 972 l 769 374 l 314 972 l 117 972 z m 674 1049 b 847 1240 771 1049 815 1124 l 735 1275 b 654 1207 715 1231 697 1207 b 572 1229 632 1207 606 1217 b 438 1261 532 1244 485 1261 b 264 1069 340 1261 296 1186 l 376 1035 b 457 1103 396 1079 414 1103 b 539 1081 479 1103 506 1093 b 674 1049 579 1065 626 1049 z "},"ñ":{"ha":865,"x_min":0,"x_max":0,"o":"m 94 0 l 306 0 l 306 415 b 438 567 306 515 357 567 b 565 415 518 567 565 515 l 565 0 l 776 0 l 776 482 b 524 758 776 653 683 758 b 306 639 417 758 354 701 l 306 744 l 94 744 z m 556 826 b 728 1018 653 826 696 901 l 615 1053 b 536 985 596 1008 579 985 b 454 1008 514 985 486 996 b 328 1039 419 1022 375 1039 b 156 847 231 1039 188 964 l 268 813 b 347 881 288 857 304 881 b 429 857 369 881 397 869 b 556 826 464 843 508 826 z "},"Ó":{"ha":1181,"x_min":0,"x_max":0,"o":"m 589 -17 b 1107 486 889 -17 1107 210 l 1107 489 b 592 989 1107 765 892 989 b 74 486 292 989 74 763 l 74 483 b 589 -17 74 207 289 -17 z m 592 181 b 297 486 419 181 297 319 l 297 489 b 589 792 297 656 417 792 b 883 486 761 792 883 653 l 883 483 b 592 181 883 317 764 181 z m 504 1063 l 665 1063 l 854 1201 l 672 1281 z "},"ó":{"ha":922,"x_min":0,"x_max":0,"o":"m 460 -17 b 864 371 692 -17 864 157 l 864 374 b 463 758 864 588 693 758 b 58 371 231 758 58 585 l 58 368 b 460 -17 58 154 229 -17 z m 463 165 b 267 371 346 165 267 261 l 267 374 b 460 576 267 483 339 576 b 656 371 576 576 656 481 l 656 368 b 463 165 656 258 583 165 z m 378 826 l 533 826 l 714 993 l 532 1072 z "},"Ŏ":{"ha":1181,"x_min":0,"x_max":0,"o":"m 589 -17 b 1107 486 889 -17 1107 210 l 1107 489 b 592 989 1107 765 892 989 b 74 486 292 989 74 763 l 74 483 b 589 -17 74 207 289 -17 z m 592 181 b 297 486 419 181 297 319 l 297 489 b 589 792 297 656 417 792 b 883 486 761 792 883 653 l 883 483 b 592 181 883 317 764 181 z m 590 1060 b 854 1267 738 1060 842 1133 l 710 1267 b 590 1199 693 1224 660 1199 b 471 1267 521 1199 488 1224 l 326 1267 b 590 1060 339 1133 443 1060 z "},"ŏ":{"ha":922,"x_min":0,"x_max":0,"o":"m 460 -17 b 864 371 692 -17 864 157 l 864 374 b 463 758 864 588 693 758 b 58 371 231 758 58 585 l 58 368 b 460 -17 58 154 229 -17 z m 463 165 b 267 371 346 165 267 261 l 267 374 b 460 576 267 483 339 576 b 656 371 576 576 656 481 l 656 368 b 463 165 656 258 583 165 z m 461 824 b 722 1044 608 824 710 904 l 581 1044 b 461 961 564 994 531 961 b 342 1044 392 961 358 994 l 200 1044 b 461 824 213 904 314 824 z "},"Ô":{"ha":1181,"x_min":0,"x_max":0,"o":"m 589 -17 b 1107 486 889 -17 1107 210 l 1107 489 b 592 989 1107 765 892 989 b 74 486 292 989 74 763 l 74 483 b 589 -17 74 207 289 -17 z m 592 181 b 297 486 419 181 297 319 l 297 489 b 589 792 297 656 417 792 b 883 486 761 792 883 653 l 883 483 b 592 181 883 317 764 181 z m 313 1063 l 479 1063 l 589 1140 l 699 1063 l 868 1063 l 690 1267 l 490 1267 z "},"ô":{"ha":922,"x_min":0,"x_max":0,"o":"m 460 -17 b 864 371 692 -17 864 157 l 864 374 b 463 758 864 588 693 758 b 58 371 231 758 58 585 l 58 368 b 460 -17 58 154 229 -17 z m 463 165 b 267 371 346 165 267 261 l 267 374 b 460 576 267 483 339 576 b 656 371 576 576 656 481 l 656 368 b 463 165 656 258 583 165 z m 190 826 l 350 826 l 460 918 l 569 826 l 732 826 l 561 1044 l 361 1044 z "},"Ö":{"ha":1181,"x_min":0,"x_max":0,"o":"m 589 -17 b 1107 486 889 -17 1107 210 l 1107 489 b 592 989 1107 765 892 989 b 74 486 292 989 74 763 l 74 483 b 589 -17 74 207 289 -17 z m 592 181 b 297 486 419 181 297 319 l 297 489 b 589 792 297 656 417 792 b 883 486 761 792 883 653 l 883 483 b 592 181 883 317 764 181 z m 640 1063 l 843 1063 l 843 1239 l 640 1239 z m 338 1063 l 540 1063 l 540 1239 l 338 1239 z "},"ö":{"ha":922,"x_min":0,"x_max":0,"o":"m 460 -17 b 864 371 692 -17 864 157 l 864 374 b 463 758 864 588 693 758 b 58 371 231 758 58 585 l 58 368 b 460 -17 58 154 229 -17 z m 463 165 b 267 371 346 165 267 261 l 267 374 b 460 576 267 483 339 576 b 656 371 576 576 656 481 l 656 368 b 463 165 656 258 583 165 z m 504 826 l 707 826 l 707 1014 l 504 1014 z m 215 826 l 418 826 l 418 1014 l 215 1014 z "},"Œ":{"ha":1493,"x_min":0,"x_max":0,"o":"m 590 0 l 1419 0 l 1419 190 l 926 190 l 926 394 l 1350 394 l 1350 585 l 926 585 l 926 782 l 1413 782 l 1413 972 l 590 972 b 74 486 285 972 74 760 l 74 483 b 590 0 74 210 285 0 z m 590 193 b 297 486 415 193 297 314 l 297 489 b 590 779 297 661 415 779 l 714 779 l 714 193 z "},"œ":{"ha":1435,"x_min":0,"x_max":0,"o":"m 447 -17 b 733 110 564 -17 665 32 b 1031 -17 804 31 908 -17 b 1335 122 1165 -17 1265 36 l 1214 229 b 1033 153 1156 175 1104 153 b 851 299 939 153 872 203 l 1369 299 b 1372 354 1371 318 1372 338 b 1010 758 1372 565 1258 758 b 736 635 897 758 801 711 b 456 758 669 711 571 758 b 58 371 235 758 58 585 l 58 368 b 447 -17 58 154 235 -17 z m 849 431 b 1010 589 865 526 922 589 b 1167 431 1099 589 1154 525 z m 456 165 b 267 371 343 165 267 261 l 267 374 b 453 576 267 481 336 576 b 642 371 565 576 642 481 l 642 368 b 456 165 642 258 572 165 z "},"Ò":{"ha":1181,"x_min":0,"x_max":0,"o":"m 589 -17 b 1107 486 889 -17 1107 210 l 1107 489 b 592 989 1107 765 892 989 b 74 486 292 989 74 763 l 74 483 b 589 -17 74 207 289 -17 z m 592 181 b 297 486 419 181 297 319 l 297 489 b 589 792 297 656 417 792 b 883 486 761 792 883 653 l 883 483 b 592 181 883 317 764 181 z m 676 1063 l 508 1281 l 326 1201 l 515 1063 z "},"ò":{"ha":922,"x_min":0,"x_max":0,"o":"m 460 -17 b 864 371 692 -17 864 157 l 864 374 b 463 758 864 588 693 758 b 58 371 231 758 58 585 l 58 368 b 460 -17 58 154 229 -17 z m 463 165 b 267 371 346 165 267 261 l 267 374 b 460 576 267 483 339 576 b 656 371 576 576 656 481 l 656 368 b 463 165 656 258 583 165 z m 389 826 l 544 826 l 390 1072 l 208 993 z "},"Ő":{"ha":1181,"x_min":0,"x_max":0,"o":"m 589 -17 b 1107 486 889 -17 1107 210 l 1107 489 b 592 989 1107 765 892 989 b 74 486 292 989 74 763 l 74 483 b 589 -17 74 207 289 -17 z m 592 181 b 297 486 419 181 297 319 l 297 489 b 589 792 297 656 417 792 b 883 486 761 792 883 653 l 883 483 b 592 181 883 317 764 181 z m 364 1063 l 518 1063 l 707 1201 l 532 1281 z m 628 1063 l 782 1063 l 971 1201 l 796 1281 z "},"ő":{"ha":922,"x_min":0,"x_max":0,"o":"m 460 -17 b 864 371 692 -17 864 157 l 864 374 b 463 758 864 588 693 758 b 58 371 231 758 58 585 l 58 368 b 460 -17 58 154 229 -17 z m 463 165 b 267 371 346 165 267 261 l 267 374 b 460 576 267 483 339 576 b 656 371 576 576 656 481 l 656 368 b 463 165 656 258 583 165 z m 499 826 l 647 826 l 831 993 l 653 1072 z m 242 826 l 390 826 l 571 993 l 393 1072 z "},"Ō":{"ha":1181,"x_min":0,"x_max":0,"o":"m 589 -17 b 1107 486 889 -17 1107 210 l 1107 489 b 592 989 1107 765 892 989 b 74 486 292 989 74 763 l 74 483 b 589 -17 74 207 289 -17 z m 592 181 b 297 486 419 181 297 319 l 297 489 b 589 792 297 656 417 792 b 883 486 761 792 883 653 l 883 483 b 592 181 883 317 764 181 z m 326 1069 l 854 1069 l 854 1218 l 326 1218 z "},"ō":{"ha":922,"x_min":0,"x_max":0,"o":"m 460 -17 b 864 371 692 -17 864 157 l 864 374 b 463 758 864 588 693 758 b 58 371 231 758 58 585 l 58 368 b 460 -17 58 154 229 -17 z m 463 165 b 267 371 346 165 267 261 l 267 374 b 460 576 267 483 339 576 b 656 371 576 576 656 481 l 656 368 b 463 165 656 258 583 165 z m 211 833 l 711 833 l 711 979 l 211 979 z "},"Ø":{"ha":1181,"x_min":0,"x_max":0,"o":"m 914 979 l 860 919 b 592 989 783 963 692 989 b 74 486 292 989 74 763 l 74 483 b 199 151 74 356 119 239 l 63 -7 l 267 -7 l 321 53 b 589 -17 397 8 488 -17 b 1107 486 889 -17 1107 210 l 1107 489 b 982 821 1107 617 1061 733 l 1118 979 z m 592 176 b 454 210 540 176 494 189 l 839 658 b 888 486 869 608 888 549 l 888 483 b 592 176 888 315 765 176 z m 293 486 l 293 489 b 589 796 293 657 415 796 b 726 763 639 796 686 783 l 342 314 b 293 486 310 364 293 422 z "},"ø":{"ha":922,"x_min":0,"x_max":0,"o":"m 700 751 l 661 710 b 463 758 604 740 536 758 b 58 371 231 758 58 585 l 58 368 b 149 121 58 274 92 188 l 38 -7 l 222 -7 l 260 32 b 460 -17 318 1 385 -17 b 864 371 692 -17 864 157 l 864 374 b 772 622 864 468 829 556 l 885 751 z m 261 371 l 261 374 b 460 582 261 486 335 582 b 539 565 489 582 515 575 l 283 271 b 261 371 269 301 261 335 z m 463 160 b 383 175 433 160 407 165 l 638 471 b 661 371 653 440 661 406 l 661 368 b 463 160 661 256 588 160 z "},"Ǿ":{"ha":1181,"x_min":0,"x_max":0,"o":"m 914 979 l 860 919 b 592 989 783 963 692 989 b 74 486 292 989 74 763 l 74 483 b 199 151 74 356 119 239 l 63 -7 l 267 -7 l 321 53 b 589 -17 397 8 488 -17 b 1107 486 889 -17 1107 210 l 1107 489 b 982 821 1107 617 1061 733 l 1118 979 z m 592 176 b 454 210 540 176 494 189 l 839 658 b 888 486 869 608 888 549 l 888 483 b 592 176 888 315 765 176 z m 293 486 l 293 489 b 589 796 293 657 415 796 b 726 763 639 796 686 783 l 342 314 b 293 486 310 364 293 422 z m 504 1063 l 665 1063 l 854 1201 l 672 1281 z "},"ǿ":{"ha":922,"x_min":0,"x_max":0,"o":"m 700 751 l 661 710 b 463 758 604 740 536 758 b 58 371 231 758 58 585 l 58 368 b 149 121 58 274 92 188 l 38 -7 l 222 -7 l 260 32 b 460 -17 318 1 385 -17 b 864 371 692 -17 864 157 l 864 374 b 772 622 864 468 829 556 l 885 751 z m 378 826 l 533 826 l 714 993 l 532 1072 z m 261 371 l 261 374 b 460 582 261 486 335 582 b 539 565 489 582 515 575 l 283 271 b 261 371 269 301 261 335 z m 463 160 b 383 175 433 160 407 165 l 638 471 b 661 371 653 440 661 406 l 661 368 b 463 160 661 256 588 160 z "},"Õ":{"ha":1181,"x_min":0,"x_max":0,"o":"m 589 -17 b 1107 486 889 -17 1107 210 l 1107 489 b 592 989 1107 765 892 989 b 74 486 292 989 74 763 l 74 483 b 589 -17 74 207 289 -17 z m 592 181 b 297 486 419 181 297 319 l 297 489 b 589 792 297 656 417 792 b 883 486 761 792 883 653 l 883 483 b 592 181 883 317 764 181 z m 715 1063 b 889 1254 813 1063 857 1138 l 776 1289 b 696 1221 757 1244 739 1221 b 614 1243 674 1221 647 1231 b 479 1275 574 1258 526 1275 b 306 1083 382 1275 338 1200 l 418 1049 b 499 1117 438 1093 456 1117 b 581 1094 521 1117 547 1107 b 715 1063 621 1079 668 1063 z "},"õ":{"ha":922,"x_min":0,"x_max":0,"o":"m 460 -17 b 864 371 692 -17 864 157 l 864 374 b 463 758 864 588 693 758 b 58 371 231 758 58 585 l 58 368 b 460 -17 58 154 229 -17 z m 463 165 b 267 371 346 165 267 261 l 267 374 b 460 576 267 483 339 576 b 656 371 576 576 656 481 l 656 368 b 463 165 656 258 583 165 z m 582 826 b 754 1018 679 826 722 901 l 642 1053 b 563 985 622 1008 606 985 b 481 1008 540 985 513 996 b 354 1039 446 1022 401 1039 b 182 847 257 1039 214 964 l 294 813 b 374 881 314 857 331 881 b 456 857 396 881 424 869 b 582 826 490 843 535 826 z "},"Ŕ":{"ha":1004,"x_min":0,"x_max":0,"o":"m 117 0 l 331 0 l 331 311 l 499 311 l 707 0 l 957 0 l 719 347 b 928 649 843 393 928 492 l 928 651 b 844 874 928 743 899 819 b 561 972 781 938 685 972 l 117 972 z m 331 500 l 331 779 l 543 779 b 711 640 647 779 711 732 l 711 638 b 547 500 711 556 651 500 z m 404 1049 l 565 1049 l 754 1188 l 572 1267 z "},"ŕ":{"ha":581,"x_min":0,"x_max":0,"o":"m 94 0 l 306 0 l 306 275 b 532 538 306 453 392 538 l 543 538 l 543 758 b 306 594 418 764 349 697 l 306 744 l 94 744 z m 235 826 l 390 826 l 571 993 l 389 1072 z "},"Ř":{"ha":1004,"x_min":0,"x_max":0,"o":"m 117 0 l 331 0 l 331 311 l 499 311 l 707 0 l 957 0 l 719 347 b 928 649 843 393 928 492 l 928 651 b 844 874 928 743 899 819 b 561 972 781 938 685 972 l 117 972 z m 331 500 l 331 779 l 543 779 b 711 640 647 779 711 732 l 711 638 b 547 500 711 556 651 500 z m 768 1253 l 601 1253 l 492 1175 l 382 1253 l 213 1253 l 390 1049 l 590 1049 z "},"ř":{"ha":581,"x_min":0,"x_max":0,"o":"m 94 0 l 306 0 l 306 275 b 532 538 306 453 392 538 l 543 538 l 543 758 b 306 594 418 764 349 697 l 306 744 l 94 744 z m 589 1044 l 429 1044 l 319 953 l 210 1044 l 47 1044 l 218 826 l 418 826 z "},"Ŗ":{"ha":1004,"x_min":0,"x_max":0,"o":"m 117 0 l 331 0 l 331 311 l 499 311 l 707 0 l 957 0 l 719 347 b 928 649 843 393 928 492 l 928 651 b 844 874 928 743 899 819 b 561 972 781 938 685 972 l 117 972 z m 331 500 l 331 779 l 543 779 b 711 640 647 779 711 732 l 711 638 b 547 500 711 556 651 500 z m 389 -399 b 586 -210 517 -396 586 -343 l 586 -75 l 394 -75 l 394 -235 l 483 -235 b 378 -335 488 -293 451 -328 z "},"ŗ":{"ha":581,"x_min":0,"x_max":0,"o":"m 94 0 l 306 0 l 306 275 b 532 538 306 453 392 538 l 543 538 l 543 758 b 306 594 418 764 349 697 l 306 744 l 94 744 z m 107 -406 b 304 -217 235 -403 304 -350 l 304 -82 l 113 -82 l 113 -242 l 201 -242 b 96 -342 206 -300 169 -335 z "},"Ś":{"ha":889,"x_min":0,"x_max":0,"o":"m 463 -14 b 819 288 672 -14 819 94 l 819 290 b 511 582 819 460 708 531 b 301 710 343 625 301 646 l 301 713 b 426 797 301 760 344 797 b 679 701 508 797 593 761 l 790 863 b 429 986 692 942 571 986 b 89 693 231 986 89 869 l 89 690 b 411 393 89 497 215 443 b 607 269 574 351 607 324 l 607 267 b 467 175 607 210 554 175 b 176 293 356 175 264 221 l 50 142 b 463 -14 167 38 315 -14 z m 364 1063 l 525 1063 l 714 1201 l 532 1281 z "},"ś":{"ha":697,"x_min":0,"x_max":0,"o":"m 356 -14 b 640 226 517 -14 640 61 l 640 229 b 415 450 640 365 519 415 b 264 539 335 478 264 497 l 264 542 b 342 593 264 571 290 593 b 543 524 396 593 469 567 l 624 669 b 346 756 543 724 440 756 b 74 519 196 756 74 671 l 74 517 b 296 293 74 372 192 324 b 450 207 378 268 450 253 l 450 204 b 361 149 450 171 422 149 b 126 238 292 149 207 179 l 36 99 b 356 -14 135 21 251 -14 z m 269 826 l 425 826 l 606 993 l 424 1072 z "},"Š":{"ha":889,"x_min":0,"x_max":0,"o":"m 463 -14 b 819 288 672 -14 819 94 l 819 290 b 511 582 819 460 708 531 b 301 710 343 625 301 646 l 301 713 b 426 797 301 760 344 797 b 679 701 508 797 593 761 l 790 863 b 429 986 692 942 571 986 b 89 693 231 986 89 869 l 89 690 b 411 393 89 497 215 443 b 607 269 574 351 607 324 l 607 267 b 467 175 607 210 554 175 b 176 293 356 175 264 221 l 50 142 b 463 -14 167 38 315 -14 z m 728 1267 l 561 1267 l 451 1189 l 342 1267 l 172 1267 l 350 1063 l 550 1063 z "},"š":{"ha":697,"x_min":0,"x_max":0,"o":"m 356 -14 b 640 226 517 -14 640 61 l 640 229 b 415 450 640 365 519 415 b 264 539 335 478 264 497 l 264 542 b 342 593 264 571 290 593 b 543 524 396 593 469 567 l 624 669 b 346 756 543 724 440 756 b 74 519 196 756 74 671 l 74 517 b 296 293 74 372 192 324 b 450 207 378 268 450 253 l 450 204 b 361 149 450 171 422 149 b 126 238 292 149 207 179 l 36 99 b 356 -14 135 21 251 -14 z m 624 1044 l 464 1044 l 354 953 l 244 1044 l 82 1044 l 253 826 l 453 826 z "},"Ş":{"ha":889,"x_min":0,"x_max":0,"o":"m 438 -240 l 531 -10 b 819 288 703 11 819 115 l 819 290 b 511 582 819 460 708 531 b 301 710 343 625 301 646 l 301 713 b 426 797 301 760 344 797 b 679 701 508 797 593 761 l 790 863 b 429 986 692 942 571 986 b 89 693 231 986 89 869 l 89 690 b 411 393 89 497 215 443 b 607 269 574 351 607 324 l 607 267 b 467 175 607 210 554 175 b 176 293 356 175 264 221 l 50 142 b 369 -7 142 58 254 10 l 261 -167 z "},"ş":{"ha":697,"x_min":0,"x_max":0,"o":"m 328 -240 l 421 -10 b 640 226 549 8 640 83 l 640 229 b 415 450 640 365 519 415 b 264 539 335 478 264 497 l 264 542 b 342 593 264 571 290 593 b 543 524 396 593 469 567 l 624 669 b 346 756 543 724 440 756 b 74 519 196 756 74 671 l 74 517 b 296 293 74 372 192 324 b 450 207 378 268 450 253 l 450 204 b 361 149 450 171 422 149 b 126 238 292 149 207 179 l 36 99 b 263 -4 106 43 185 10 l 151 -167 z "},"Ș":{"ha":889,"x_min":0,"x_max":0,"o":"m 463 -14 b 819 288 672 -14 819 94 l 819 290 b 511 582 819 460 708 531 b 301 710 343 625 301 646 l 301 713 b 426 797 301 760 344 797 b 679 701 508 797 593 761 l 790 863 b 429 986 692 942 571 986 b 89 693 231 986 89 869 l 89 690 b 411 393 89 497 215 443 b 607 269 574 351 607 324 l 607 267 b 467 175 607 210 554 175 b 176 293 356 175 264 221 l 50 142 b 463 -14 167 38 315 -14 z m 349 -412 b 546 -224 476 -410 546 -357 l 546 -89 l 354 -89 l 354 -249 l 443 -249 b 338 -349 447 -307 411 -342 z "},"ș":{"ha":697,"x_min":0,"x_max":0,"o":"m 356 -14 b 640 226 517 -14 640 61 l 640 229 b 415 450 640 365 519 415 b 264 539 335 478 264 497 l 264 542 b 342 593 264 571 290 593 b 543 524 396 593 469 567 l 624 669 b 346 756 543 724 440 756 b 74 519 196 756 74 671 l 74 517 b 296 293 74 372 192 324 b 450 207 378 268 450 253 l 450 204 b 361 149 450 171 422 149 b 126 238 292 149 207 179 l 36 99 b 356 -14 135 21 251 -14 z m 251 -406 b 449 -217 379 -403 449 -350 l 449 -82 l 257 -82 l 257 -242 l 346 -242 b 240 -342 350 -300 314 -335 z "},"Ť":{"ha":900,"x_min":0,"x_max":0,"o":"m 343 0 l 557 0 l 557 775 l 853 775 l 853 972 l 47 972 l 47 775 l 343 775 z m 728 1253 l 561 1253 l 451 1175 l 342 1253 l 172 1253 l 350 1049 l 550 1049 z "},"ť":{"ha":576,"x_min":0,"x_max":0,"o":"m 346 -12 b 513 31 417 -12 468 4 l 513 200 b 408 174 482 183 447 174 b 340 246 361 174 340 197 l 340 564 l 515 564 l 515 744 l 340 744 l 340 935 l 129 935 l 129 744 l 40 744 l 40 564 l 129 564 l 129 211 b 346 -12 129 39 217 -12 z m 429 822 l 513 822 l 594 1107 l 594 1111 l 443 1111 z "},"Ţ":{"ha":900,"x_min":0,"x_max":0,"o":"m 343 0 l 557 0 l 557 775 l 853 775 l 853 972 l 47 972 l 47 775 l 343 775 z m 349 -406 b 546 -217 476 -403 546 -350 l 546 -82 l 354 -82 l 354 -242 l 443 -242 b 338 -342 447 -300 411 -335 z "},"ţ":{"ha":576,"x_min":0,"x_max":0,"o":"m 346 -12 b 513 31 417 -12 468 4 l 513 200 b 408 174 482 183 447 174 b 340 246 361 174 340 197 l 340 564 l 515 564 l 515 744 l 340 744 l 340 935 l 129 935 l 129 744 l 40 744 l 40 564 l 129 564 l 129 211 b 346 -12 129 39 217 -12 z m 207 -406 b 404 -217 335 -403 404 -350 l 404 -82 l 213 -82 l 213 -242 l 301 -242 b 196 -342 306 -300 269 -335 z "},"Þ":{"ha":935,"x_min":0,"x_max":0,"o":"m 117 0 l 331 0 l 331 150 l 493 150 b 886 492 711 150 886 267 l 886 494 b 514 831 886 693 746 831 l 331 831 l 331 972 l 117 972 z m 331 340 l 331 638 l 496 638 b 669 490 603 638 669 586 l 669 488 b 500 340 669 404 607 340 z "},"þ":{"ha":938,"x_min":0,"x_max":0,"o":"m 94 -222 l 306 -222 l 306 97 b 538 -14 356 38 425 -14 b 876 371 714 -14 876 122 l 876 374 b 538 758 876 622 711 758 b 306 638 428 758 357 707 l 306 1014 l 94 1014 z m 483 165 b 303 371 385 165 303 247 l 303 374 b 483 579 303 497 385 579 b 665 374 582 579 665 497 l 665 371 b 483 165 665 246 582 165 z "},"Ú":{"ha":1050,"x_min":0,"x_max":0,"o":"m 522 -15 b 949 424 783 -15 949 129 l 949 972 l 735 972 l 735 415 b 525 182 735 261 656 182 b 315 422 394 182 315 264 l 315 972 l 101 972 l 101 417 b 522 -15 101 131 261 -15 z m 439 1049 l 600 1049 l 789 1188 l 607 1267 z "},"ú":{"ha":865,"x_min":0,"x_max":0,"o":"m 342 -14 b 560 106 449 -14 511 43 l 560 0 l 771 0 l 771 744 l 560 744 l 560 329 b 428 178 560 229 508 178 b 300 329 347 178 300 229 l 300 744 l 89 744 l 89 263 b 342 -14 89 92 182 -14 z m 346 826 l 501 826 l 682 993 l 500 1072 z "},"Ŭ":{"ha":1050,"x_min":0,"x_max":0,"o":"m 522 -15 b 949 424 783 -15 949 129 l 949 972 l 735 972 l 735 415 b 525 182 735 261 656 182 b 315 422 394 182 315 264 l 315 972 l 101 972 l 101 417 b 522 -15 101 131 261 -15 z m 525 1032 b 789 1239 672 1032 776 1106 l 644 1239 b 525 1171 628 1196 594 1171 b 406 1239 456 1171 422 1196 l 261 1239 b 525 1032 274 1106 378 1032 z "},"ŭ":{"ha":865,"x_min":0,"x_max":0,"o":"m 342 -14 b 560 106 449 -14 511 43 l 560 0 l 771 0 l 771 744 l 560 744 l 560 329 b 428 178 560 229 508 178 b 300 329 347 178 300 229 l 300 744 l 89 744 l 89 263 b 342 -14 89 92 182 -14 z m 429 824 b 690 1044 576 824 678 904 l 549 1044 b 429 961 532 994 499 961 b 310 1044 360 961 326 994 l 168 1044 b 429 824 181 904 282 824 z "},"Û":{"ha":1050,"x_min":0,"x_max":0,"o":"m 522 -15 b 949 424 783 -15 949 129 l 949 972 l 735 972 l 735 415 b 525 182 735 261 656 182 b 315 422 394 182 315 264 l 315 972 l 101 972 l 101 417 b 522 -15 101 131 261 -15 z m 247 1049 l 414 1049 l 524 1126 l 633 1049 l 803 1049 l 625 1253 l 425 1253 z "},"û":{"ha":865,"x_min":0,"x_max":0,"o":"m 342 -14 b 560 106 449 -14 511 43 l 560 0 l 771 0 l 771 744 l 560 744 l 560 329 b 428 178 560 229 508 178 b 300 329 347 178 300 229 l 300 744 l 89 744 l 89 263 b 342 -14 89 92 182 -14 z m 158 826 l 318 826 l 428 918 l 538 826 l 700 826 l 529 1044 l 329 1044 z "},"Ü":{"ha":1050,"x_min":0,"x_max":0,"o":"m 522 -15 b 949 424 783 -15 949 129 l 949 972 l 735 972 l 735 415 b 525 182 735 261 656 182 b 315 422 394 182 315 264 l 315 972 l 101 972 l 101 417 b 522 -15 101 131 261 -15 z m 575 1049 l 778 1049 l 778 1225 l 575 1225 z m 272 1049 l 475 1049 l 475 1225 l 272 1225 z "},"ü":{"ha":865,"x_min":0,"x_max":0,"o":"m 342 -14 b 560 106 449 -14 511 43 l 560 0 l 771 0 l 771 744 l 560 744 l 560 329 b 428 178 560 229 508 178 b 300 329 347 178 300 229 l 300 744 l 89 744 l 89 263 b 342 -14 89 92 182 -14 z m 472 826 l 675 826 l 675 1014 l 472 1014 z m 183 826 l 386 826 l 386 1014 l 183 1014 z "},"Ù":{"ha":1050,"x_min":0,"x_max":0,"o":"m 522 -15 b 949 424 783 -15 949 129 l 949 972 l 735 972 l 735 415 b 525 182 735 261 656 182 b 315 422 394 182 315 264 l 315 972 l 101 972 l 101 417 b 522 -15 101 131 261 -15 z m 611 1049 l 443 1267 l 261 1188 l 450 1049 z "},"ù":{"ha":865,"x_min":0,"x_max":0,"o":"m 342 -14 b 560 106 449 -14 511 43 l 560 0 l 771 0 l 771 744 l 560 744 l 560 329 b 428 178 560 229 508 178 b 300 329 347 178 300 229 l 300 744 l 89 744 l 89 263 b 342 -14 89 92 182 -14 z m 357 826 l 513 826 l 358 1072 l 176 993 z "},"Ű":{"ha":1050,"x_min":0,"x_max":0,"o":"m 522 -15 b 949 424 783 -15 949 129 l 949 972 l 735 972 l 735 415 b 525 182 735 261 656 182 b 315 422 394 182 315 264 l 315 972 l 101 972 l 101 417 b 522 -15 101 131 261 -15 z m 299 1049 l 453 1049 l 642 1188 l 467 1267 z m 563 1049 l 717 1049 l 906 1188 l 731 1267 z "},"ű":{"ha":865,"x_min":0,"x_max":0,"o":"m 342 -14 b 560 106 449 -14 511 43 l 560 0 l 771 0 l 771 744 l 560 744 l 560 329 b 428 178 560 229 508 178 b 300 329 347 178 300 229 l 300 744 l 89 744 l 89 263 b 342 -14 89 92 182 -14 z m 467 826 l 615 826 l 799 993 l 621 1072 z m 210 826 l 358 826 l 539 993 l 361 1072 z "},"Ū":{"ha":1050,"x_min":0,"x_max":0,"o":"m 522 -15 b 949 424 783 -15 949 129 l 949 972 l 735 972 l 735 415 b 525 182 735 261 656 182 b 315 422 394 182 315 264 l 315 972 l 101 972 l 101 417 b 522 -15 101 131 261 -15 z m 261 1056 l 789 1056 l 789 1204 l 261 1204 z "},"ū":{"ha":865,"x_min":0,"x_max":0,"o":"m 342 -14 b 560 106 449 -14 511 43 l 560 0 l 771 0 l 771 744 l 560 744 l 560 329 b 428 178 560 229 508 178 b 300 329 347 178 300 229 l 300 744 l 89 744 l 89 263 b 342 -14 89 92 182 -14 z m 179 833 l 679 833 l 679 979 l 179 979 z "},"Ų":{"ha":1050,"x_min":0,"x_max":0,"o":"m 649 -135 b 551 -78 588 -137 551 -118 b 575 -12 551 -58 557 -37 b 949 424 806 6 949 150 l 949 972 l 735 972 l 735 415 b 525 182 735 261 656 182 b 315 422 394 182 315 264 l 315 972 l 101 972 l 101 417 b 439 -10 101 163 228 18 b 400 -111 415 -43 400 -75 b 586 -232 400 -179 465 -232 b 649 -228 604 -232 626 -231 z "},"ų":{"ha":865,"x_min":0,"x_max":0,"o":"m 785 -135 b 688 -78 724 -137 688 -118 b 722 0 688 -56 697 -29 l 771 0 l 771 744 l 560 744 l 560 329 b 428 178 560 229 508 178 b 300 329 347 178 300 229 l 300 744 l 89 744 l 89 263 b 342 -14 89 92 182 -14 b 560 106 449 -14 511 43 l 560 0 l 582 0 b 536 -111 554 -36 536 -71 b 722 -232 536 -179 601 -232 b 785 -228 740 -232 763 -231 z "},"Ů":{"ha":1050,"x_min":0,"x_max":0,"o":"m 522 -15 b 949 424 783 -15 949 129 l 949 972 l 735 972 l 735 415 b 525 182 735 261 656 182 b 315 422 394 182 315 264 l 315 972 l 101 972 l 101 417 b 522 -15 101 131 261 -15 z m 525 1011 b 697 1164 618 1011 697 1074 b 525 1317 697 1254 618 1317 b 353 1164 432 1317 353 1254 b 525 1011 353 1074 432 1011 z m 525 1086 b 438 1164 472 1086 438 1121 b 525 1242 438 1207 472 1242 b 613 1164 578 1242 613 1207 b 525 1086 613 1121 578 1086 z "},"ů":{"ha":865,"x_min":0,"x_max":0,"o":"m 342 -14 b 560 106 449 -14 511 43 l 560 0 l 771 0 l 771 744 l 560 744 l 560 329 b 428 178 560 229 508 178 b 300 329 347 178 300 229 l 300 744 l 89 744 l 89 263 b 342 -14 89 92 182 -14 z m 429 803 b 597 965 522 803 597 875 b 429 1128 597 1056 522 1128 b 261 965 336 1128 261 1056 b 429 803 261 875 336 803 z m 429 874 b 338 965 379 874 338 915 b 429 1057 338 1015 379 1057 b 521 965 479 1057 521 1015 b 429 874 521 915 479 874 z "},"Ẃ":{"ha":1558,"x_min":0,"x_max":0,"o":"m 374 -7 l 560 -7 l 779 629 l 999 -7 l 1185 -7 l 1517 972 l 1293 972 l 1092 314 l 874 975 l 690 975 l 472 314 l 271 972 l 42 972 z m 693 1049 l 854 1049 l 1043 1188 l 861 1267 z "},"ẃ":{"ha":1196,"x_min":0,"x_max":0,"o":"m 263 -6 l 451 -6 l 597 451 l 740 -6 l 931 -6 l 1163 744 l 953 744 l 831 292 l 689 747 l 507 747 l 367 293 l 247 744 l 33 744 z m 514 826 l 669 826 l 850 993 l 668 1072 z "},"Ŵ":{"ha":1558,"x_min":0,"x_max":0,"o":"m 374 -7 l 560 -7 l 779 629 l 999 -7 l 1185 -7 l 1517 972 l 1293 972 l 1092 314 l 874 975 l 690 975 l 472 314 l 271 972 l 42 972 z m 501 1049 l 668 1049 l 778 1126 l 888 1049 l 1057 1049 l 879 1253 l 679 1253 z "},"ŵ":{"ha":1196,"x_min":0,"x_max":0,"o":"m 263 -6 l 451 -6 l 597 451 l 740 -6 l 931 -6 l 1163 744 l 953 744 l 831 292 l 689 747 l 507 747 l 367 293 l 247 744 l 33 744 z m 326 826 l 486 826 l 596 918 l 706 826 l 868 826 l 697 1044 l 497 1044 z "},"Ẅ":{"ha":1558,"x_min":0,"x_max":0,"o":"m 374 -7 l 560 -7 l 779 629 l 999 -7 l 1185 -7 l 1517 972 l 1293 972 l 1092 314 l 874 975 l 690 975 l 472 314 l 271 972 l 42 972 z m 829 1049 l 1032 1049 l 1032 1225 l 829 1225 z m 526 1049 l 729 1049 l 729 1225 l 526 1225 z "},"ẅ":{"ha":1196,"x_min":0,"x_max":0,"o":"m 263 -6 l 451 -6 l 597 451 l 740 -6 l 931 -6 l 1163 744 l 953 744 l 831 292 l 689 747 l 507 747 l 367 293 l 247 744 l 33 744 z m 640 826 l 843 826 l 843 1014 l 640 1014 z m 351 826 l 554 826 l 554 1014 l 351 1014 z "},"Ẁ":{"ha":1558,"x_min":0,"x_max":0,"o":"m 374 -7 l 560 -7 l 779 629 l 999 -7 l 1185 -7 l 1517 972 l 1293 972 l 1092 314 l 874 975 l 690 975 l 472 314 l 271 972 l 42 972 z m 865 1049 l 697 1267 l 515 1188 l 704 1049 z "},"ẁ":{"ha":1196,"x_min":0,"x_max":0,"o":"m 263 -6 l 451 -6 l 597 451 l 740 -6 l 931 -6 l 1163 744 l 953 744 l 831 292 l 689 747 l 507 747 l 367 293 l 247 744 l 33 744 z m 525 826 l 681 826 l 526 1072 l 344 993 z "},"Ý":{"ha":994,"x_min":0,"x_max":0,"o":"m 390 0 l 604 0 l 604 388 l 978 972 l 735 972 l 499 582 l 267 972 l 17 972 l 390 383 z m 411 1049 l 572 1049 l 761 1188 l 579 1267 z "},"ý":{"ha":833,"x_min":0,"x_max":0,"o":"m 421 238 l 251 744 l 28 744 l 319 -3 b 246 -51 301 -40 282 -51 b 156 -22 218 -51 183 -39 l 85 -175 b 272 -226 139 -207 196 -226 b 517 -18 399 -226 460 -169 l 803 744 l 583 744 z m 332 826 l 488 826 l 668 993 l 486 1072 z "},"Ŷ":{"ha":994,"x_min":0,"x_max":0,"o":"m 390 0 l 604 0 l 604 388 l 978 972 l 735 972 l 499 582 l 267 972 l 17 972 l 390 383 z m 219 1049 l 386 1049 l 496 1126 l 606 1049 l 775 1049 l 597 1253 l 397 1253 z "},"ŷ":{"ha":833,"x_min":0,"x_max":0,"o":"m 421 238 l 251 744 l 28 744 l 319 -3 b 246 -51 301 -40 282 -51 b 156 -22 218 -51 183 -39 l 85 -175 b 272 -226 139 -207 196 -226 b 517 -18 399 -226 460 -169 l 803 744 l 583 744 z m 144 826 l 304 826 l 414 918 l 524 826 l 686 826 l 515 1044 l 315 1044 z "},"Ÿ":{"ha":994,"x_min":0,"x_max":0,"o":"m 390 0 l 604 0 l 604 388 l 978 972 l 735 972 l 499 582 l 267 972 l 17 972 l 390 383 z m 547 1049 l 750 1049 l 750 1225 l 547 1225 z m 244 1049 l 447 1049 l 447 1225 l 244 1225 z "},"ÿ":{"ha":833,"x_min":0,"x_max":0,"o":"m 421 238 l 251 744 l 28 744 l 319 -3 b 246 -51 301 -40 282 -51 b 156 -22 218 -51 183 -39 l 85 -175 b 272 -226 139 -207 196 -226 b 517 -18 399 -226 460 -169 l 803 744 l 583 744 z m 458 826 l 661 826 l 661 1014 l 458 1014 z m 169 826 l 372 826 l 372 1014 l 169 1014 z "},"Ỳ":{"ha":994,"x_min":0,"x_max":0,"o":"m 390 0 l 604 0 l 604 388 l 978 972 l 735 972 l 499 582 l 267 972 l 17 972 l 390 383 z m 583 1049 l 415 1267 l 233 1188 l 422 1049 z "},"ỳ":{"ha":833,"x_min":0,"x_max":0,"o":"m 421 238 l 251 744 l 28 744 l 319 -3 b 246 -51 301 -40 282 -51 b 156 -22 218 -51 183 -39 l 85 -175 b 272 -226 139 -207 196 -226 b 517 -18 399 -226 460 -169 l 803 744 l 583 744 z m 343 826 l 499 826 l 344 1072 l 163 993 z "},"Ź":{"ha":983,"x_min":0,"x_max":0,"o":"m 88 0 l 897 0 l 897 188 l 363 188 l 897 810 l 897 972 l 104 972 l 104 785 l 622 785 l 88 163 z m 414 1049 l 575 1049 l 764 1188 l 582 1267 z "},"ź":{"ha":782,"x_min":0,"x_max":0,"o":"m 69 0 l 717 0 l 717 171 l 331 171 l 717 596 l 717 744 l 82 744 l 82 574 l 454 574 l 69 149 z m 310 826 l 465 826 l 646 993 l 464 1072 z "},"Ž":{"ha":983,"x_min":0,"x_max":0,"o":"m 88 0 l 897 0 l 897 188 l 363 188 l 897 810 l 897 972 l 104 972 l 104 785 l 622 785 l 88 163 z m 778 1253 l 611 1253 l 501 1175 l 392 1253 l 222 1253 l 400 1049 l 600 1049 z "},"ž":{"ha":782,"x_min":0,"x_max":0,"o":"m 69 0 l 717 0 l 717 171 l 331 171 l 717 596 l 717 744 l 82 744 l 82 574 l 454 574 l 69 149 z m 664 1044 l 504 1044 l 394 953 l 285 1044 l 122 1044 l 293 826 l 493 826 z "},"Ż":{"ha":983,"x_min":0,"x_max":0,"o":"m 88 0 l 897 0 l 897 188 l 363 188 l 897 810 l 897 972 l 104 972 l 104 785 l 622 785 l 88 163 z m 396 1049 l 604 1049 l 604 1225 l 396 1225 z "},"ż":{"ha":782,"x_min":0,"x_max":0,"o":"m 69 0 l 717 0 l 717 171 l 331 171 l 717 596 l 717 744 l 82 744 l 82 574 l 454 574 l 69 149 z m 289 826 l 497 826 l 497 1014 l 289 1014 z "},"ə":{"ha":851,"x_min":0,"x_max":0,"o":"m 404 761 b 100 622 269 761 169 708 l 221 515 b 401 592 279 569 331 592 b 583 446 496 592 563 542 l 65 446 b 63 390 64 426 63 407 b 425 -14 63 179 176 -14 b 793 374 642 -14 793 161 l 793 376 b 404 761 793 604 628 761 z m 586 314 b 425 156 569 218 513 156 b 268 314 336 156 281 219 z "},"ß":{"ha":861,"x_min":0,"x_max":0,"o":"m 415 -3 b 801 276 650 -12 801 92 l 801 279 b 619 525 801 413 713 485 b 746 751 689 572 746 632 l 746 754 b 436 1024 746 906 635 1024 b 94 699 228 1024 94 904 l 94 0 l 304 0 l 304 707 b 426 846 304 792 354 846 b 538 735 494 846 538 804 l 538 732 b 415 560 538 656 483 603 l 415 421 b 593 286 517 407 593 361 l 593 283 b 415 156 593 204 529 161 z "},"ﬀ":{"ha":1061,"x_min":0,"x_max":0,"o":"m 661 0 l 872 0 l 872 564 l 1040 564 l 1040 736 l 869 736 l 869 765 b 946 846 869 821 897 846 b 1042 828 982 846 1011 839 l 1042 1003 b 892 1024 1003 1015 958 1024 b 721 965 817 1024 760 1004 b 661 785 682 926 661 867 l 661 738 l 574 738 l 574 564 l 661 564 z m 131 0 l 342 0 l 342 564 l 510 564 l 510 736 l 339 736 l 339 765 b 415 846 339 821 367 846 b 511 828 451 846 481 839 l 511 1003 b 361 1024 472 1015 428 1024 b 190 965 286 1024 229 1004 b 131 785 151 926 131 867 l 131 738 l 43 738 l 43 564 l 131 564 z "},"ﬁ":{"ha":950,"x_min":0,"x_max":0,"o":"m 131 0 l 342 0 l 342 564 l 510 564 l 510 736 l 339 736 l 339 765 b 415 846 339 821 367 846 b 511 828 451 846 481 839 l 511 1003 b 361 1024 472 1015 428 1024 b 190 965 286 1024 229 1004 b 131 785 151 926 131 867 l 131 738 l 43 738 l 43 564 l 131 564 z m 635 0 l 846 0 l 846 744 l 635 744 z m 629 826 l 851 826 l 851 1014 l 629 1014 z "},"ﬂ":{"ha":950,"x_min":0,"x_max":0,"o":"m 131 0 l 342 0 l 342 564 l 510 564 l 510 736 l 339 736 l 339 765 b 415 846 339 821 367 846 b 511 828 451 846 481 839 l 511 1003 b 361 1024 472 1015 428 1024 b 190 965 286 1024 229 1004 b 131 785 151 926 131 867 l 131 738 l 43 738 l 43 564 l 131 564 z m 635 0 l 846 0 l 846 1014 l 635 1014 z "},"ﬃ":{"ha":1481,"x_min":0,"x_max":0,"o":"m 661 0 l 872 0 l 872 564 l 1040 564 l 1040 736 l 869 736 l 869 765 b 946 846 869 821 897 846 b 1042 828 982 846 1011 839 l 1042 1003 b 892 1024 1003 1015 958 1024 b 721 965 817 1024 760 1004 b 661 785 682 926 661 867 l 661 738 l 574 738 l 574 564 l 661 564 z m 131 0 l 342 0 l 342 564 l 510 564 l 510 736 l 339 736 l 339 765 b 415 846 339 821 367 846 b 511 828 451 846 481 839 l 511 1003 b 361 1024 472 1015 428 1024 b 190 965 286 1024 229 1004 b 131 785 151 926 131 867 l 131 738 l 43 738 l 43 564 l 131 564 z m 1165 0 l 1376 0 l 1376 744 l 1165 744 z m 1160 826 l 1382 826 l 1382 1014 l 1160 1014 z "},"ﬄ":{"ha":1481,"x_min":0,"x_max":0,"o":"m 661 0 l 872 0 l 872 564 l 1040 564 l 1040 736 l 869 736 l 869 765 b 946 846 869 821 897 846 b 1042 828 982 846 1011 839 l 1042 1003 b 892 1024 1003 1015 958 1024 b 721 965 817 1024 760 1004 b 661 785 682 926 661 867 l 661 738 l 574 738 l 574 564 l 661 564 z m 131 0 l 342 0 l 342 564 l 510 564 l 510 736 l 339 736 l 339 765 b 415 846 339 821 367 846 b 511 828 451 846 481 839 l 511 1003 b 361 1024 472 1015 428 1024 b 190 965 286 1024 229 1004 b 131 785 151 926 131 867 l 131 738 l 43 738 l 43 564 l 131 564 z m 1165 0 l 1376 0 l 1376 1014 l 1165 1014 z "},".":{"ha":397,"x_min":0,"x_max":0,"o":"m 86 0 l 311 0 l 311 222 l 86 222 z "},",":{"ha":397,"x_min":0,"x_max":0,"o":"m 54 -225 b 311 35 219 -222 311 -149 l 311 222 l 86 222 l 86 0 l 172 0 b 36 -137 179 -79 132 -128 z "},":":{"ha":411,"x_min":0,"x_max":0,"o":"m 93 522 l 318 522 l 318 744 l 93 744 z m 93 0 l 318 0 l 318 222 l 93 222 z "},";":{"ha":411,"x_min":0,"x_max":0,"o":"m 93 522 l 318 522 l 318 744 l 93 744 z m 61 -225 b 318 35 226 -222 318 -149 l 318 222 l 93 222 l 93 0 l 179 0 b 43 -137 186 -79 139 -128 z "},"…":{"ha":1167,"x_min":0,"x_max":0,"o":"m 861 0 l 1081 0 l 1081 217 l 861 217 z m 474 0 l 693 0 l 693 217 l 474 217 z m 86 0 l 306 0 l 306 217 l 86 217 z "},"·":{"ha":397,"x_min":0,"x_max":0,"o":"m 86 319 l 311 319 l 311 542 l 86 542 z "},"•":{"ha":694,"x_min":0,"x_max":0,"o":"m 347 282 b 554 488 461 282 554 374 l 554 490 b 347 696 554 604 461 696 b 140 490 233 696 140 604 l 140 488 b 347 282 140 374 233 282 z "},"&":{"ha":967,"x_min":0,"x_max":0,"o":"m 771 -19 l 928 90 l 785 233 b 913 439 833 299 875 371 l 756 525 b 661 358 725 465 693 408 l 532 488 b 736 742 653 535 736 611 l 736 744 b 463 989 736 881 628 989 b 168 733 275 989 168 867 l 168 731 b 236 536 168 664 189 603 b 47 269 114 481 47 393 l 47 267 b 374 -14 47 94 188 -14 b 658 94 486 -14 579 29 z m 421 600 b 364 721 381 646 364 678 l 364 724 b 458 822 364 782 401 822 b 550 732 513 822 550 788 l 550 729 b 421 600 550 668 506 632 z m 399 161 b 263 275 319 161 263 207 l 263 278 b 353 406 263 325 289 372 l 539 217 b 399 161 494 182 447 161 z "},"!":{"ha":450,"x_min":0,"x_max":0,"o":"m 167 331 l 283 331 l 349 944 l 349 972 l 101 972 l 101 944 z m 113 0 l 338 0 l 338 222 l 113 222 z "},"¡":{"ha":450,"x_min":0,"x_max":0,"o":"m 113 750 l 338 750 l 338 972 l 113 972 z m 101 0 l 349 0 l 349 28 l 283 642 l 167 642 l 101 28 z "},"?":{"ha":756,"x_min":0,"x_max":0,"o":"m 274 331 l 415 331 l 431 415 b 704 694 582 446 704 518 l 704 697 b 368 985 704 882 568 985 b 28 835 217 985 108 924 l 156 694 b 364 790 219 758 286 790 b 492 692 444 790 492 754 l 492 689 b 249 563 492 615 424 569 l 242 556 z m 228 0 l 453 0 l 453 222 l 228 222 z "},"¿":{"ha":756,"x_min":0,"x_max":0,"o":"m 303 750 l 528 750 l 528 972 l 303 972 z m 388 -12 b 728 138 539 -12 647 49 l 600 278 b 392 182 536 214 469 182 b 264 281 311 182 264 218 l 264 283 b 507 410 264 357 332 403 l 514 417 l 482 642 l 340 642 l 325 557 b 51 278 174 526 51 454 l 51 275 b 388 -12 51 90 188 -12 z "},"“":{"ha":750,"x_min":0,"x_max":0,"o":"m 432 532 l 657 532 l 657 754 l 571 754 b 707 892 564 833 611 882 l 689 979 b 432 719 524 976 432 903 z m 79 532 l 304 532 l 304 754 l 218 754 b 354 892 211 833 258 882 l 336 979 b 79 719 171 976 79 903 z "},"”":{"ha":750,"x_min":0,"x_max":0,"o":"m 414 525 b 671 785 579 528 671 601 l 671 972 l 446 972 l 446 750 l 532 750 b 396 613 539 671 492 622 z m 61 525 b 318 785 226 528 318 601 l 318 972 l 93 972 l 93 750 l 179 750 b 43 613 186 671 139 622 z "},"‘":{"ha":397,"x_min":0,"x_max":0,"o":"m 79 532 l 304 532 l 304 754 l 218 754 b 354 892 211 833 258 882 l 336 979 b 79 719 171 976 79 903 z "},"’":{"ha":397,"x_min":0,"x_max":0,"o":"m 61 525 b 318 785 226 528 318 601 l 318 972 l 93 972 l 93 750 l 179 750 b 43 613 186 671 139 622 z "},"„":{"ha":750,"x_min":0,"x_max":0,"o":"m 407 -225 b 664 35 572 -222 664 -149 l 664 222 l 439 222 l 439 0 l 525 0 b 389 -137 532 -79 485 -128 z m 54 -225 b 311 35 219 -222 311 -149 l 311 222 l 86 222 l 86 0 l 172 0 b 36 -137 179 -79 132 -128 z "},"‚":{"ha":397,"x_min":0,"x_max":0,"o":"m 54 -225 b 311 35 219 -222 311 -149 l 311 222 l 86 222 l 86 0 l 172 0 b 36 -137 179 -79 132 -128 z "},"«":{"ha":896,"x_min":0,"x_max":0,"o":"m 682 58 l 829 133 l 663 374 l 829 614 l 682 686 l 435 378 l 435 367 z m 304 58 l 451 133 l 285 374 l 451 614 l 304 686 l 57 378 l 57 367 z "},"»":{"ha":896,"x_min":0,"x_max":0,"o":"m 592 58 l 839 367 l 839 378 l 592 686 l 444 611 l 611 371 l 444 131 z m 214 58 l 461 367 l 461 378 l 214 686 l 67 611 l 233 371 l 67 131 z "},"‹":{"ha":518,"x_min":0,"x_max":0,"o":"m 304 58 l 451 133 l 285 374 l 451 614 l 304 686 l 57 378 l 57 367 z "},"›":{"ha":518,"x_min":0,"x_max":0,"o":"m 214 58 l 461 367 l 461 378 l 214 686 l 67 611 l 233 371 l 67 131 z "},"-":{"ha":567,"x_min":0,"x_max":0,"o":"m 69 329 l 497 329 l 497 532 l 69 532 z "},"–":{"ha":733,"x_min":0,"x_max":0,"o":"m 69 332 l 664 332 l 664 529 l 69 529 z "},"—":{"ha":1247,"x_min":0,"x_max":0,"o":"m 69 332 l 1178 332 l 1178 529 l 69 529 z "},"_":{"ha":833,"x_min":0,"x_max":0,"o":"m -3 -222 l 836 -222 l 836 -61 l -3 -61 z "},"/":{"ha":736,"x_min":0,"x_max":0,"o":"m -39 -178 l 140 -178 l 756 1108 l 576 1108 z "},"\\":{"ha":736,"x_min":0,"x_max":0,"o":"m 596 -178 l 775 -178 l 160 1108 l -19 1108 z "},"|":{"ha":486,"x_min":0,"x_max":0,"o":"m 160 -178 l 326 -178 l 326 1108 l 160 1108 z "},"(":{"ha":618,"x_min":0,"x_max":0,"o":"m 467 -196 l 560 -56 b 292 399 372 75 292 203 b 560 853 292 594 372 722 l 467 993 b 82 399 211 854 82 665 b 467 -196 82 132 211 -57 z "},")":{"ha":618,"x_min":0,"x_max":0,"o":"m 151 -196 b 536 399 407 -57 536 132 b 151 993 536 665 407 854 l 58 853 b 326 399 246 722 326 594 b 58 -56 326 203 246 75 z "},"[":{"ha":646,"x_min":0,"x_max":0,"o":"m 115 -181 l 564 -181 l 564 -15 l 318 -15 l 318 807 l 564 807 l 564 972 l 115 972 z "},"]":{"ha":646,"x_min":0,"x_max":0,"o":"m 82 -181 l 531 -181 l 531 972 l 82 972 l 82 807 l 328 807 l 328 -15 l 82 -15 z "},"{":{"ha":681,"x_min":0,"x_max":0,"o":"m 578 -196 l 615 -56 b 446 110 468 -14 446 25 b 450 213 446 138 450 183 b 306 399 450 314 399 368 b 450 585 399 429 450 483 b 446 688 450 614 446 660 b 615 853 446 772 468 811 l 578 993 b 253 718 324 949 253 860 b 257 622 253 697 257 646 b 104 479 257 514 213 479 l 68 479 l 68 318 l 104 318 b 257 175 213 318 257 283 b 253 79 257 151 253 100 b 578 -196 253 -62 324 -151 z "},"}":{"ha":681,"x_min":0,"x_max":0,"o":"m 103 -196 b 428 79 357 -151 428 -62 b 424 175 428 100 424 151 b 576 318 424 283 468 318 l 613 318 l 613 479 l 576 479 b 424 622 468 479 424 514 b 428 718 424 646 428 697 b 103 993 428 860 357 949 l 65 853 b 235 688 213 811 235 772 b 231 585 235 660 231 614 b 375 399 231 483 282 429 b 231 213 282 368 231 314 b 235 110 231 183 235 138 b 65 -56 235 25 213 -14 z "},"@":{"ha":1361,"x_min":0,"x_max":0,"o":"m 693 -225 b 1061 -121 838 -225 954 -186 l 1033 -76 b 693 -169 929 -137 831 -169 b 132 381 365 -169 132 75 b 682 933 132 685 368 933 b 1229 439 994 933 1229 696 b 1053 156 1229 254 1151 156 b 951 243 989 156 951 193 b 956 286 951 254 953 272 l 1021 660 l 857 686 l 842 613 b 650 707 803 665 746 707 b 339 358 488 707 339 554 b 593 90 339 193 451 90 b 799 174 683 90 751 131 b 1011 90 833 133 899 90 b 1288 439 1164 90 1288 207 b 682 989 1288 724 1022 989 b 74 381 342 989 74 713 b 693 -225 74 49 338 -225 z m 642 233 b 511 368 565 233 511 282 b 569 517 511 429 533 481 b 678 564 600 547 638 564 b 807 433 753 564 807 513 b 747 279 807 371 783 315 b 642 233 718 250 681 233 z "},"©":{"ha":1153,"x_min":0,"x_max":0,"o":"m 575 -17 b 1079 486 857 -17 1079 213 l 1079 489 b 578 989 1079 763 860 989 b 74 486 296 989 74 760 l 74 483 b 575 -17 74 210 293 -17 z m 575 39 b 132 483 322 39 132 238 l 132 486 b 578 933 132 732 324 933 b 1021 489 831 933 1021 735 l 1021 486 b 575 39 1021 240 829 39 z m 582 217 b 801 313 685 217 746 253 l 724 390 b 586 328 682 353 646 328 b 433 492 496 328 433 403 l 433 494 b 586 658 433 585 497 658 b 721 599 638 658 681 635 l 797 688 b 586 769 747 736 688 769 b 308 493 422 769 308 644 l 308 490 b 582 217 308 338 425 217 z "},"℗":{"ha":1153,"x_min":0,"x_max":0,"o":"m 575 -17 b 1079 486 857 -17 1079 213 l 1079 489 b 578 989 1079 763 860 989 b 74 486 296 989 74 760 l 74 483 b 575 -17 74 210 293 -17 z m 575 39 b 132 483 322 39 132 238 l 132 486 b 578 933 132 732 324 933 b 1021 489 831 933 1021 735 l 1021 486 b 575 39 1021 240 829 39 z m 392 228 l 511 228 l 511 389 l 600 389 b 817 575 719 389 817 453 l 817 578 b 611 763 817 688 739 763 l 392 763 z m 511 493 l 511 657 l 600 657 b 696 576 658 657 696 628 l 696 574 b 603 493 696 528 661 493 z "},"®":{"ha":511,"x_min":0,"x_max":0,"o":"m 256 500 b 497 743 390 500 497 611 l 497 744 b 256 986 497 876 392 986 b 14 743 121 986 14 875 l 14 742 b 256 500 14 610 119 500 z m 256 526 b 42 742 133 526 42 624 l 42 743 b 256 960 42 861 135 960 b 469 744 378 960 469 863 l 469 743 b 256 526 469 625 376 526 z m 150 619 l 222 619 l 222 696 l 253 696 l 304 619 l 388 619 l 326 708 b 379 789 358 721 379 749 b 272 875 379 849 335 875 l 150 875 z m 222 753 l 222 814 l 268 814 b 307 783 293 814 307 803 b 268 753 307 765 293 753 z "},"℠":{"ha":976,"x_min":0,"x_max":0,"o":"m 497 544 l 589 544 l 589 833 l 707 646 l 715 646 l 833 833 l 833 544 l 925 544 l 925 972 l 825 972 l 713 792 l 600 972 l 497 972 z m 236 536 b 408 669 339 536 408 586 b 250 799 408 746 343 778 b 153 857 178 815 153 828 b 221 901 153 882 175 901 b 346 856 267 901 308 882 l 396 922 b 224 981 354 958 292 981 b 61 846 122 981 61 925 b 221 717 61 764 129 739 b 317 658 296 699 317 686 b 242 613 317 631 290 613 b 90 671 183 613 133 638 l 39 607 b 236 536 90 564 167 536 z "},"™":{"ha":958,"x_min":0,"x_max":0,"o":"m 479 544 l 571 544 l 571 833 l 689 646 l 697 646 l 815 833 l 815 544 l 907 544 l 907 972 l 807 972 l 694 792 l 582 972 l 479 972 z m 164 544 l 261 544 l 261 886 l 389 886 l 389 972 l 36 972 l 36 886 l 164 886 z "},"*":{"ha":597,"x_min":0,"x_max":0,"o":"m 242 517 l 356 517 l 333 683 l 468 581 l 526 681 l 371 746 l 526 811 l 468 911 l 333 808 l 356 975 l 242 975 l 264 808 l 129 911 l 71 811 l 226 746 l 71 681 l 129 581 l 264 683 z "},"†":{"ha":569,"x_min":0,"x_max":0,"o":"m 226 331 l 343 331 l 329 706 l 496 692 l 496 807 l 331 793 l 349 972 l 221 972 l 239 793 l 74 807 l 74 692 l 240 706 z "},"‡":{"ha":597,"x_min":0,"x_max":0,"o":"m 235 0 l 363 0 l 344 179 l 510 165 l 510 281 l 344 267 l 357 486 l 344 706 l 510 692 l 510 807 l 344 793 l 363 972 l 235 972 l 253 793 l 88 807 l 88 692 l 253 706 l 240 486 l 253 267 l 88 281 l 88 165 l 253 179 z "},"$":{"ha":897,"x_min":0,"x_max":0,"o":"m 792 867 b 533 968 715 919 632 956 l 533 1053 l 389 1053 l 389 972 b 97 700 214 954 97 853 l 97 697 b 396 403 97 532 196 457 l 396 182 b 169 294 314 199 244 238 l 61 136 b 389 4 153 67 269 19 l 389 -136 l 533 -136 l 533 1 b 828 275 708 19 828 119 l 828 278 b 526 575 828 433 738 518 l 526 786 b 699 704 583 771 643 742 z m 625 267 l 625 264 b 526 175 625 214 592 185 l 526 369 b 625 267 601 342 625 313 z m 300 710 l 300 713 b 396 799 300 757 328 790 l 396 610 b 300 710 319 638 300 665 z "},"£":{"ha":894,"x_min":0,"x_max":0,"o":"m 83 0 l 828 0 l 828 185 l 406 185 l 406 371 l 722 371 l 722 547 l 406 547 l 406 654 b 442 757 406 699 419 735 b 521 788 463 778 488 788 b 668 696 581 788 621 757 l 831 826 b 518 986 764 917 675 986 b 272 897 411 986 329 954 b 189 660 218 843 189 760 l 189 547 l 83 547 l 83 371 l 189 371 l 189 175 l 83 140 z "},"€":{"ha":1000,"x_min":0,"x_max":0,"o":"m 944 811 b 603 989 871 914 775 989 b 199 676 397 989 256 860 l 68 676 l 68 536 l 172 536 b 171 485 171 519 171 501 b 172 442 171 469 171 456 l 68 442 l 68 301 l 196 301 b 607 -17 250 111 394 -17 b 947 175 767 -17 865 60 l 794 288 b 607 174 733 213 688 174 b 419 301 519 174 456 219 l 678 301 l 678 442 l 389 442 b 388 488 388 456 388 472 b 389 536 388 504 388 521 l 678 536 l 678 676 l 422 676 b 599 799 457 753 517 799 b 783 689 679 799 731 760 z "},"¥":{"ha":953,"x_min":0,"x_max":0,"o":"m 118 364 l 374 364 l 374 278 l 118 278 l 118 128 l 374 128 l 374 0 l 579 0 l 579 128 l 835 128 l 835 278 l 579 278 l 579 364 l 835 364 l 835 514 l 635 514 l 933 972 l 694 972 l 478 613 l 265 972 l 19 972 l 317 514 l 118 514 z "},"¢":{"ha":807,"x_min":0,"x_max":0,"o":"m 626 981 l 482 981 l 463 881 l 454 881 b 65 493 229 881 65 707 l 65 490 b 315 128 65 322 169 182 l 289 -8 l 433 -8 l 456 106 b 753 246 590 108 681 165 l 633 367 b 485 289 589 325 542 297 l 560 672 b 628 621 583 660 606 643 l 753 756 b 601 858 710 806 658 839 z m 269 493 l 269 496 b 433 697 269 601 338 690 l 358 313 b 269 493 301 347 269 414 z "},"฿":{"ha":903,"x_min":0,"x_max":0,"o":"m 432 1083 l 421 972 l 89 972 l 89 0 l 333 0 l 319 -164 l 453 -164 l 467 0 l 500 0 b 851 271 710 0 851 90 l 851 272 b 685 506 851 401 785 460 b 829 719 761 540 829 601 l 829 721 b 553 971 829 869 717 957 l 565 1083 z m 501 414 b 657 296 606 414 657 369 b 506 175 657 215 600 175 l 472 175 l 493 414 z m 279 567 l 279 797 l 414 797 l 393 567 z m 636 683 b 506 567 636 608 586 572 l 525 794 b 636 683 596 786 636 749 z m 279 175 l 279 414 l 379 414 l 358 175 z "},"₡":{"ha":861,"x_min":0,"x_max":0,"o":"m 622 1083 l 607 964 b 513 972 578 969 546 972 l 526 1083 l 431 1083 l 415 964 b 56 492 207 924 56 750 l 56 479 b 301 44 56 268 156 115 l 276 -164 l 372 -164 l 393 11 b 488 0 424 4 456 0 l 468 -164 l 564 -164 l 585 6 b 818 131 679 22 749 65 l 715 269 b 603 190 678 235 643 207 l 671 742 b 738 692 694 726 717 710 l 813 874 b 700 939 781 899 743 922 l 718 1083 z m 411 190 l 486 796 b 508 797 493 797 500 797 b 589 783 536 797 564 792 l 514 175 b 411 190 476 175 442 179 z m 250 474 l 250 486 b 396 772 250 632 308 729 l 331 239 b 250 474 279 288 250 364 z "},"ƒ":{"ha":744,"x_min":0,"x_max":0,"o":"m 139 -7 b 410 218 299 -7 381 54 l 456 478 l 646 478 l 646 651 l 486 651 l 496 707 b 600 801 507 772 539 801 b 694 788 629 801 661 796 l 694 963 b 557 979 660 974 613 979 b 294 754 390 979 321 896 l 275 651 l 151 651 l 151 478 l 244 478 l 206 251 b 108 167 194 190 167 167 b 57 171 93 167 75 168 l 57 0 b 139 -7 82 -6 104 -7 z "},"₦":{"ha":1167,"x_min":0,"x_max":0,"o":"m 1131 275 l 1131 403 l 988 403 l 988 575 l 1131 575 l 1131 703 l 988 703 l 988 972 l 786 972 l 786 703 l 568 703 l 404 972 l 179 972 l 179 703 l 36 703 l 36 575 l 179 575 l 179 403 l 36 403 l 36 275 l 179 275 l 179 0 l 381 0 l 381 275 l 608 275 l 778 0 l 988 0 l 988 275 z m 376 657 l 383 657 l 540 397 l 376 397 z m 783 338 l 636 581 l 790 581 l 790 338 z "},"₱":{"ha":1060,"x_min":0,"x_max":0,"o":"m 179 0 l 393 0 l 393 264 l 514 264 b 903 561 713 264 875 372 l 1036 561 l 1036 682 l 903 682 b 535 972 878 850 743 972 l 179 972 l 179 682 l 36 682 l 36 561 l 179 561 z m 515 443 l 388 443 l 388 568 l 690 568 b 515 443 672 494 611 443 z m 388 790 l 511 790 b 688 675 604 790 667 750 l 388 675 z "},"₨":{"ha":1542,"x_min":0,"x_max":0,"o":"m 104 0 l 304 0 l 304 319 l 432 319 l 610 0 l 839 0 l 633 361 b 814 649 740 408 814 501 l 814 654 b 467 972 814 860 679 972 l 104 972 z m 1214 -14 b 1488 218 1364 -14 1488 64 l 1488 221 b 1257 446 1488 343 1407 396 b 1114 540 1139 485 1114 504 l 1114 543 b 1201 597 1114 574 1147 597 b 1396 533 1263 597 1328 574 l 1468 678 b 1206 754 1389 728 1293 754 b 935 524 1054 754 935 671 l 935 521 b 1165 296 935 397 1018 344 b 1308 204 1288 256 1308 240 l 1308 201 b 1218 143 1308 167 1272 143 b 983 225 1142 143 1061 172 l 900 88 b 1214 -14 994 21 1100 -14 z m 304 497 l 304 789 l 454 789 b 611 646 549 789 611 747 l 611 640 b 458 497 611 550 553 497 z "},"₩":{"ha":1556,"x_min":0,"x_max":0,"o":"m 1458 972 l 1235 972 l 1174 689 l 972 689 l 900 975 l 661 975 l 588 689 l 386 689 l 326 972 l 97 972 l 171 689 l 43 689 l 43 554 l 206 554 l 242 417 l 43 417 l 43 282 l 276 282 l 351 -3 l 593 -3 l 668 282 l 888 282 l 963 -3 l 1204 -3 l 1278 282 l 1513 282 l 1513 417 l 1314 417 l 1349 554 l 1513 554 l 1513 689 l 1385 689 z m 774 726 l 782 726 l 860 410 l 696 410 z m 1079 238 l 1000 561 l 1153 561 l 1088 238 z m 474 238 l 407 561 l 561 561 l 482 238 z "},"₪":{"ha":875,"x_min":0,"x_max":0,"o":"m 321 193 b 538 0 339 61 407 0 l 797 0 l 797 744 l 640 744 l 640 171 l 539 171 b 415 274 467 171 426 201 l 389 447 l 285 447 z m 469 469 l 469 297 l 574 297 l 574 569 b 399 744 574 679 508 744 l 78 744 l 78 0 l 235 0 l 235 574 l 365 574 b 469 469 433 574 469 538 z "},"#":{"ha":972,"x_min":0,"x_max":0,"o":"m 875 386 l 751 386 l 788 592 l 924 592 l 924 769 l 818 769 l 853 972 l 669 972 l 635 769 l 433 769 l 468 972 l 285 972 l 250 769 l 97 769 l 97 592 l 219 592 l 183 386 l 49 386 l 49 208 l 153 208 l 118 0 l 301 0 l 338 208 l 538 208 l 503 0 l 686 0 l 721 208 l 875 208 z m 399 597 l 608 597 l 572 381 l 363 381 z "},"¶":{"ha":819,"x_min":0,"x_max":0,"o":"m 489 0 l 703 0 l 703 972 l 432 972 b 49 646 204 972 49 850 l 49 643 b 456 319 49 428 222 319 l 489 319 z "},"§":{"ha":878,"x_min":0,"x_max":0,"o":"m 678 331 b 801 493 744 356 801 401 l 801 496 b 493 703 801 603 713 654 b 340 779 361 732 340 750 l 340 782 b 432 832 340 813 374 832 b 636 740 508 832 572 799 l 750 854 b 426 986 672 939 568 986 b 142 771 249 986 142 903 l 142 768 b 200 642 142 721 160 674 b 76 479 133 617 76 572 l 76 476 b 385 269 76 372 165 318 b 538 193 507 243 538 225 l 538 190 b 446 140 538 161 508 140 b 242 232 369 140 306 174 l 128 118 b 451 -14 206 33 310 -14 b 736 201 632 -14 736 71 l 736 204 b 678 331 736 253 715 301 z m 540 401 b 401 426 511 401 474 408 b 261 507 306 450 261 471 l 261 510 b 338 571 261 549 294 571 b 476 546 367 571 404 564 b 617 465 572 522 617 501 l 617 463 b 540 401 617 424 583 401 z "},"ª":{"ha":542,"x_min":0,"x_max":0,"o":"m 213 554 b 336 607 269 554 308 575 l 336 563 l 449 563 l 449 800 b 404 931 449 854 435 900 b 265 976 375 960 329 976 b 107 943 196 976 153 964 l 136 856 b 249 878 174 869 206 878 b 338 803 307 878 338 850 l 338 796 b 238 813 308 806 278 813 b 72 682 140 813 72 771 l 72 679 b 213 554 72 599 135 554 z m 68 385 l 454 385 l 454 476 l 68 476 z m 247 635 b 185 685 210 635 185 654 l 185 688 b 264 743 185 724 215 743 b 339 728 293 743 318 736 l 339 707 b 247 635 339 665 301 635 z "},"º":{"ha":542,"x_min":0,"x_max":0,"o":"m 269 553 b 485 765 392 553 485 647 l 485 768 b 272 979 485 886 394 979 b 57 767 150 979 57 885 l 57 764 b 269 553 57 646 147 553 z m 71 385 l 471 385 l 471 476 l 71 476 z m 272 653 b 171 765 211 653 171 706 l 171 768 b 269 879 171 828 208 879 b 371 767 331 879 371 826 l 371 764 b 272 653 371 704 333 653 z "},"°":{"ha":667,"x_min":0,"x_max":0,"o":"m 333 511 b 574 744 460 511 574 618 l 574 747 b 333 981 574 874 460 981 b 93 747 207 981 93 874 l 93 744 b 333 511 93 618 207 511 z m 333 615 b 206 744 260 615 206 675 l 206 747 b 333 876 206 817 260 876 b 461 747 407 876 461 817 l 461 744 b 333 615 461 675 407 615 z "},"%":{"ha":1194,"x_min":0,"x_max":0,"o":"m 297 486 b 535 735 439 486 535 599 l 535 738 b 300 983 535 874 440 983 b 63 735 158 983 63 872 l 63 732 b 297 486 63 596 157 486 z m 297 857 b 389 735 353 857 389 800 l 389 732 b 300 613 389 669 358 613 b 208 735 244 613 208 669 l 208 738 b 297 857 208 801 239 857 z m 549 524 l 160 0 l 325 0 l 646 449 l 1035 972 l 869 972 z m 894 -11 b 1132 238 1036 -11 1132 101 l 1132 240 b 897 486 1132 376 1038 486 b 660 238 756 486 660 375 l 660 235 b 894 -11 660 99 754 -11 z m 897 115 b 806 238 842 115 806 172 l 806 240 b 894 360 806 304 836 360 b 986 238 950 360 986 303 l 986 235 b 897 115 986 172 956 115 z "},"‰":{"ha":1722,"x_min":0,"x_max":0,"o":"m 300 613 b 208 735 244 613 208 669 l 208 738 b 297 857 208 801 239 857 b 389 735 353 857 389 800 l 389 732 b 300 613 389 669 358 613 z m 297 486 b 535 735 439 486 535 599 l 535 738 b 300 983 535 874 440 983 b 63 735 158 983 63 872 l 63 732 b 297 486 63 596 157 486 z m 1035 972 l 869 972 l 549 524 l 160 0 l 325 0 l 646 449 z m 897 115 b 806 238 842 115 806 172 l 806 240 b 894 360 806 304 836 360 b 986 238 950 360 986 303 l 986 235 b 897 115 986 172 956 115 z m 894 -11 b 1132 238 1036 -11 1132 101 l 1132 240 b 897 486 1132 376 1038 486 b 660 238 756 486 660 375 l 660 235 b 894 -11 660 99 754 -11 z m 1425 115 b 1333 238 1369 115 1333 172 l 1333 240 b 1422 360 1333 304 1364 360 b 1514 238 1478 360 1514 303 l 1514 235 b 1425 115 1514 172 1483 115 z m 1422 -11 b 1660 238 1564 -11 1660 101 l 1660 240 b 1425 486 1660 376 1565 486 b 1188 238 1283 486 1188 375 l 1188 235 b 1422 -11 1188 99 1282 -11 z "},"\"":{"ha":722,"x_min":0,"x_max":0,"o":"m 407 529 l 514 529 l 665 965 l 665 972 l 432 972 z m 79 529 l 186 529 l 338 965 l 338 972 l 104 972 z "},"'":{"ha":397,"x_min":0,"x_max":0,"o":"m 79 529 l 189 529 l 340 965 l 340 972 l 104 972 z "},"+":{"ha":889,"x_min":0,"x_max":0,"o":"m 346 143 l 543 143 l 543 393 l 794 393 l 794 585 l 543 585 l 543 835 l 346 835 l 346 585 l 94 585 l 94 393 l 346 393 z "},"−":{"ha":889,"x_min":0,"x_max":0,"o":"m 794 392 l 794 586 l 94 586 l 94 392 z "},"÷":{"ha":889,"x_min":0,"x_max":0,"o":"m 336 688 l 553 688 l 553 888 l 336 888 z m 794 400 l 794 578 l 94 578 l 94 400 z m 336 90 l 553 90 l 553 290 l 336 290 z "},"=":{"ha":889,"x_min":0,"x_max":0,"o":"m 101 574 l 788 574 l 788 765 l 101 765 z m 101 213 l 788 213 l 788 404 l 101 404 z "},"×":{"ha":889,"x_min":0,"x_max":0,"o":"m 658 143 l 790 275 l 569 490 l 790 706 l 661 835 l 446 614 l 231 835 l 99 703 l 319 488 l 99 272 l 228 143 l 443 364 z "},"<":{"ha":889,"x_min":0,"x_max":0,"o":"m 767 99 l 767 297 l 297 490 l 767 683 l 767 879 l 94 585 l 94 393 z "},">":{"ha":889,"x_min":0,"x_max":0,"o":"m 122 99 l 794 393 l 794 585 l 122 879 l 122 681 l 592 488 l 122 294 z "},"±":{"ha":889,"x_min":0,"x_max":0,"o":"m 788 526 l 788 710 l 538 708 l 539 954 l 350 954 l 351 708 l 101 710 l 101 526 l 351 528 l 350 282 l 539 282 l 538 528 z m 788 0 l 788 175 l 101 175 l 101 0 z "},"½":{"ha":1146,"x_min":0,"x_max":0,"o":"m 319 431 l 319 979 l 231 979 l 61 913 l 96 813 l 200 851 l 200 431 z m 676 0 l 1083 0 l 1083 106 l 842 106 l 967 204 b 1081 390 1049 269 1081 315 b 888 556 1081 489 1004 556 b 676 440 786 556 731 513 l 763 369 b 881 443 800 417 838 443 b 954 379 921 443 954 419 b 861 254 954 336 926 307 l 676 104 z m 154 0 l 269 0 l 576 463 l 929 972 l 814 972 l 507 510 z "},"⅓":{"ha":1146,"x_min":0,"x_max":0,"o":"m 319 431 l 319 979 l 231 979 l 61 913 l 96 813 l 200 851 l 200 431 z m 876 -14 b 1082 167 1004 -14 1082 60 b 918 317 1082 263 1010 310 l 1072 447 l 1072 542 l 697 542 l 697 433 l 919 433 l 775 306 l 794 229 l 860 229 b 960 163 919 229 960 207 b 878 96 960 122 921 96 b 731 160 825 96 772 124 l 660 69 b 876 -14 715 21 781 -14 z m 140 0 l 256 0 l 563 463 l 915 972 l 800 972 l 493 510 z "},"⅔":{"ha":1250,"x_min":0,"x_max":0,"o":"m 58 431 l 465 431 l 465 536 l 224 536 l 349 635 b 463 821 431 700 463 746 b 269 986 463 919 386 986 b 58 871 168 986 113 943 l 144 800 b 263 874 182 847 219 874 b 336 810 303 874 336 850 b 243 685 336 767 308 738 l 58 535 z m 981 -14 b 1186 167 1108 -14 1186 60 b 1022 317 1186 263 1114 310 l 1176 447 l 1176 542 l 801 542 l 801 433 l 1024 433 l 879 306 l 899 229 l 964 229 b 1064 163 1024 229 1064 207 b 982 96 1064 122 1025 96 b 835 160 929 96 876 124 l 764 69 b 981 -14 819 21 885 -14 z m 238 0 l 353 0 l 660 463 l 1013 972 l 897 972 l 590 510 z "},"¼":{"ha":1146,"x_min":0,"x_max":0,"o":"m 1026 111 l 1099 111 l 1099 207 l 1026 207 l 1026 547 l 904 547 l 643 226 l 654 111 l 915 111 l 915 -3 l 1026 -3 z m 168 0 l 283 0 l 590 463 l 943 972 l 828 972 l 521 510 z m 319 431 l 319 979 l 231 979 l 61 913 l 96 813 l 200 851 l 200 431 z m 917 206 l 747 206 l 917 417 z "},"¾":{"ha":1250,"x_min":0,"x_max":0,"o":"m 1131 111 l 1203 111 l 1203 207 l 1131 207 l 1131 547 l 1008 547 l 747 226 l 758 111 l 1019 111 l 1019 -3 l 1131 -3 z m 272 417 b 478 597 400 417 478 490 b 314 747 478 693 406 740 l 468 878 l 468 972 l 93 972 l 93 864 l 315 864 l 171 736 l 190 660 l 256 660 b 356 593 315 660 356 638 b 274 526 356 553 317 526 b 126 590 221 526 168 554 l 56 500 b 272 417 111 451 176 417 z m 265 0 l 381 0 l 688 463 l 1040 972 l 925 972 l 618 510 z m 1021 206 l 851 206 l 1021 417 z "},"⅕":{"ha":1146,"x_min":0,"x_max":0,"o":"m 319 431 l 319 979 l 231 979 l 61 913 l 96 813 l 200 851 l 200 431 z m 875 -14 b 1092 178 1007 -14 1092 61 b 900 346 1092 290 1007 346 b 811 335 869 346 832 342 l 819 432 l 1064 432 l 1064 542 l 719 542 l 697 271 l 774 225 b 874 244 797 236 836 244 b 969 172 932 244 969 217 b 878 99 969 126 931 99 b 732 157 826 99 781 119 l 661 64 b 875 -14 721 18 786 -14 z m 147 0 l 263 0 l 569 463 l 922 972 l 807 972 l 500 510 z "},"⅖":{"ha":1250,"x_min":0,"x_max":0,"o":"m 58 431 l 465 431 l 465 536 l 224 536 l 349 635 b 463 821 431 700 463 746 b 269 986 463 919 386 986 b 58 871 168 986 113 943 l 144 800 b 263 874 182 847 219 874 b 336 810 303 874 336 850 b 243 685 336 767 308 738 l 58 535 z m 979 -14 b 1196 178 1111 -14 1196 61 b 1004 346 1196 290 1111 346 b 915 335 974 346 936 342 l 924 432 l 1168 432 l 1168 542 l 824 542 l 801 271 l 878 225 b 978 244 901 236 940 244 b 1074 172 1036 244 1074 217 b 982 99 1074 126 1035 99 b 836 157 931 99 885 119 l 765 64 b 979 -14 825 18 890 -14 z m 251 0 l 367 0 l 674 463 l 1026 972 l 911 972 l 604 510 z "},"⅗":{"ha":1250,"x_min":0,"x_max":0,"o":"m 258 417 b 464 597 386 417 464 490 b 300 747 464 693 392 740 l 454 878 l 454 972 l 79 972 l 79 864 l 301 864 l 157 736 l 176 660 l 242 660 b 342 593 301 660 342 638 b 260 526 342 553 303 526 b 113 590 207 526 154 554 l 42 500 b 258 417 97 451 163 417 z m 979 -14 b 1196 178 1111 -14 1196 61 b 1004 346 1196 290 1111 346 b 915 335 974 346 936 342 l 924 432 l 1168 432 l 1168 542 l 824 542 l 801 271 l 878 225 b 978 244 901 236 940 244 b 1074 172 1036 244 1074 217 b 982 99 1074 126 1035 99 b 836 157 931 99 885 119 l 765 64 b 979 -14 825 18 890 -14 z m 231 0 l 346 0 l 653 463 l 1006 972 l 890 972 l 583 510 z "},"⅘":{"ha":1250,"x_min":0,"x_max":0,"o":"m 422 542 l 494 542 l 494 638 l 422 638 l 422 978 l 300 978 l 39 657 l 50 542 l 311 542 l 311 428 l 422 428 z m 979 -14 b 1196 178 1111 -14 1196 61 b 1004 346 1196 290 1111 346 b 915 335 974 346 936 342 l 924 432 l 1168 432 l 1168 542 l 824 542 l 801 271 l 878 225 b 978 244 901 236 940 244 b 1074 172 1036 244 1074 217 b 982 99 1074 126 1035 99 b 836 157 931 99 885 119 l 765 64 b 979 -14 825 18 890 -14 z m 251 0 l 367 0 l 674 463 l 1026 972 l 911 972 l 604 510 z m 313 636 l 143 636 l 313 847 z "},"⅙":{"ha":1146,"x_min":0,"x_max":0,"o":"m 885 -14 b 1089 179 1003 -14 1089 63 b 907 353 1089 296 1004 353 b 793 324 856 353 824 342 b 904 446 800 397 843 446 b 1013 406 947 446 981 431 l 1069 503 b 907 556 1025 536 981 556 b 665 257 746 556 665 439 l 665 254 b 738 42 665 142 696 83 b 885 -14 771 8 824 -14 z m 154 0 l 269 0 l 576 463 l 929 972 l 814 972 l 507 510 z m 319 431 l 319 979 l 231 979 l 61 913 l 96 813 l 200 851 l 200 431 z m 882 89 b 790 172 831 89 790 122 b 882 257 790 228 825 257 b 972 172 936 257 972 225 b 882 89 972 122 933 89 z "},"⅚":{"ha":1250,"x_min":0,"x_max":0,"o":"m 989 -14 b 1193 179 1107 -14 1193 63 b 1011 353 1193 296 1108 353 b 897 324 960 353 928 342 b 1008 446 904 397 947 446 b 1117 406 1051 446 1085 431 l 1174 503 b 1011 556 1129 536 1085 556 b 769 257 850 556 769 439 l 769 254 b 842 42 769 142 800 83 b 989 -14 875 8 928 -14 z m 257 417 b 474 608 389 417 474 492 b 282 776 474 721 389 776 b 193 765 251 776 214 772 l 201 863 l 446 863 l 446 972 l 101 972 l 79 701 l 156 656 b 256 675 179 667 218 675 b 351 603 314 675 351 647 b 260 529 351 557 313 529 b 114 588 208 529 163 550 l 43 494 b 257 417 103 449 168 417 z m 238 0 l 353 0 l 660 463 l 1013 972 l 897 972 l 590 510 z m 986 89 b 894 172 935 89 894 122 b 986 257 894 228 929 257 b 1076 172 1040 257 1076 225 b 986 89 1076 122 1038 89 z "},"⅛":{"ha":1146,"x_min":0,"x_max":0,"o":"m 319 431 l 319 979 l 231 979 l 61 913 l 96 813 l 200 851 l 200 431 z m 882 -14 b 1090 150 1003 -14 1090 47 b 1004 282 1090 215 1057 254 b 1076 404 1046 307 1076 343 b 882 556 1076 489 1001 556 b 686 404 761 556 686 489 b 758 282 686 344 715 307 b 672 149 703 256 672 214 b 882 -14 672 49 758 -14 z m 882 460 b 964 392 929 460 964 431 b 882 321 964 347 928 321 b 799 392 833 321 799 349 b 882 460 799 431 832 460 z m 882 229 b 975 156 935 229 975 203 b 882 81 975 110 939 81 b 786 156 822 81 786 111 b 882 229 786 203 828 229 z m 147 0 l 263 0 l 569 463 l 922 972 l 807 972 l 500 510 z "},"⅜":{"ha":1250,"x_min":0,"x_max":0,"o":"m 258 417 b 464 597 386 417 464 490 b 300 747 464 693 392 740 l 454 878 l 454 972 l 79 972 l 79 864 l 301 864 l 157 736 l 176 660 l 242 660 b 342 593 301 660 342 638 b 260 526 342 553 303 526 b 113 590 207 526 154 554 l 42 500 b 258 417 97 451 163 417 z m 986 -14 b 1194 150 1107 -14 1194 47 b 1108 282 1194 215 1161 254 b 1181 404 1150 307 1181 343 b 986 556 1181 489 1106 556 b 790 404 865 556 790 489 b 863 282 790 344 819 307 b 776 149 807 256 776 214 b 986 -14 776 49 863 -14 z m 986 460 b 1068 392 1033 460 1068 431 b 986 321 1068 347 1032 321 b 903 392 938 321 903 349 b 986 460 903 431 936 460 z m 986 229 b 1079 156 1039 229 1079 203 b 986 81 1079 110 1043 81 b 890 156 926 81 890 111 b 986 229 890 203 932 229 z m 238 0 l 353 0 l 660 463 l 1013 972 l 897 972 l 590 510 z "},"⅝":{"ha":1250,"x_min":0,"x_max":0,"o":"m 257 417 b 474 608 389 417 474 492 b 282 776 474 721 389 776 b 193 765 251 776 214 772 l 201 863 l 446 863 l 446 972 l 101 972 l 79 701 l 156 656 b 256 675 179 667 218 675 b 351 603 314 675 351 647 b 260 529 351 557 313 529 b 114 588 208 529 163 550 l 43 494 b 257 417 103 449 168 417 z m 986 -14 b 1194 150 1107 -14 1194 47 b 1108 282 1194 215 1161 254 b 1181 404 1150 307 1181 343 b 986 556 1181 489 1106 556 b 790 404 865 556 790 489 b 863 282 790 344 819 307 b 776 149 807 256 776 214 b 986 -14 776 49 863 -14 z m 986 460 b 1068 392 1033 460 1068 431 b 986 321 1068 347 1032 321 b 903 392 938 321 903 349 b 986 460 903 431 936 460 z m 986 229 b 1079 156 1039 229 1079 203 b 986 81 1079 110 1043 81 b 890 156 926 81 890 111 b 986 229 890 203 932 229 z m 238 0 l 353 0 l 660 463 l 1013 972 l 897 972 l 590 510 z "},"⅞":{"ha":1250,"x_min":0,"x_max":0,"o":"m 243 428 l 478 878 l 478 972 l 88 972 l 88 860 l 338 860 l 107 428 z m 986 -14 b 1194 150 1107 -14 1194 47 b 1108 282 1194 215 1161 254 b 1181 404 1150 307 1181 343 b 986 556 1181 489 1106 556 b 790 404 865 556 790 489 b 863 282 790 344 819 307 b 776 149 807 256 776 214 b 986 -14 776 49 863 -14 z m 986 460 b 1068 392 1033 460 1068 431 b 986 321 1068 347 1032 321 b 903 392 938 321 903 349 b 986 460 903 431 936 460 z m 986 229 b 1079 156 1039 229 1079 203 b 986 81 1079 110 1043 81 b 890 156 926 81 890 111 b 986 229 890 203 932 229 z m 196 0 l 311 0 l 618 463 l 971 972 l 856 972 l 549 510 z "},"⁰":{"ha":556,"x_min":0,"x_max":0,"o":"m 276 569 b 507 851 403 569 507 676 l 507 858 b 278 1139 507 1032 404 1139 b 49 857 150 1139 49 1032 l 49 850 b 276 569 49 676 149 569 z m 276 1025 b 381 860 332 1025 381 972 l 381 849 b 278 683 381 735 333 683 b 175 849 221 683 175 736 l 175 860 b 276 1025 175 974 221 1025 z "},"¹":{"ha":451,"x_min":0,"x_max":0,"o":"m 319 583 l 319 1132 l 231 1132 l 61 1065 l 96 965 l 200 1004 l 200 583 z "},"²":{"ha":556,"x_min":0,"x_max":0,"o":"m 72 583 l 479 583 l 479 689 l 238 689 l 363 788 b 476 974 444 853 476 899 b 283 1139 476 1072 400 1139 b 72 1024 182 1139 126 1096 l 158 953 b 276 1026 196 1000 233 1026 b 350 963 317 1026 350 1003 b 257 838 350 919 322 890 l 72 688 z "},"³":{"ha":556,"x_min":0,"x_max":0,"o":"m 272 569 b 478 750 400 569 478 643 b 314 900 478 846 406 893 l 468 1031 l 468 1125 l 93 1125 l 93 1017 l 315 1017 l 171 889 l 190 813 l 256 813 b 356 746 315 813 356 790 b 274 679 356 706 317 679 b 126 743 221 679 168 707 l 56 653 b 272 569 111 604 176 569 z "},"⁴":{"ha":556,"x_min":0,"x_max":0,"o":"m 436 694 l 508 694 l 508 790 l 436 790 l 436 1131 l 314 1131 l 53 810 l 64 694 l 325 694 l 325 581 l 436 581 z m 326 789 l 157 789 l 326 1000 z "},"⁵":{"ha":556,"x_min":0,"x_max":0,"o":"m 271 569 b 488 761 403 569 488 644 b 296 929 488 874 403 929 b 207 918 265 929 228 925 l 215 1015 l 460 1015 l 460 1125 l 115 1125 l 93 854 l 169 808 b 269 828 193 819 232 828 b 365 756 328 828 365 800 b 274 682 365 710 326 682 b 128 740 222 682 176 703 l 57 647 b 271 569 117 601 182 569 z "},"⁶":{"ha":556,"x_min":0,"x_max":0,"o":"m 281 569 b 485 763 399 569 485 646 b 303 936 485 879 400 936 b 189 907 251 936 219 925 b 300 1029 196 981 239 1029 b 408 989 343 1029 376 1014 l 465 1086 b 303 1139 421 1119 376 1139 b 61 840 142 1139 61 1022 l 61 838 b 133 625 61 725 92 667 b 281 569 167 592 219 569 z m 278 672 b 186 756 226 672 186 706 b 278 840 186 811 221 840 b 368 756 332 840 368 808 b 278 672 368 706 329 672 z "},"⁷":{"ha":556,"x_min":0,"x_max":0,"o":"m 243 581 l 478 1031 l 478 1125 l 88 1125 l 88 1013 l 338 1013 l 107 581 z "},"⁸":{"ha":556,"x_min":0,"x_max":0,"o":"m 278 569 b 486 733 399 569 486 631 b 400 865 486 799 453 838 b 472 988 442 890 472 926 b 278 1139 472 1072 397 1139 b 82 988 157 1139 82 1072 b 154 865 82 928 111 890 b 68 732 99 839 68 797 b 278 569 68 632 154 569 z m 278 1043 b 360 975 325 1043 360 1014 b 278 904 360 931 324 904 b 194 975 229 904 194 932 b 278 1043 194 1014 228 1043 z m 278 813 b 371 739 331 813 371 786 b 278 664 371 693 335 664 b 182 739 218 664 182 694 b 278 813 182 786 224 813 z "},"⁹":{"ha":556,"x_min":0,"x_max":0,"o":"m 275 1139 b 71 943 157 1139 71 1058 b 256 767 71 825 158 767 b 365 796 307 767 335 778 b 256 679 358 725 315 679 b 138 724 213 679 169 699 l 81 626 b 253 569 125 593 179 569 b 494 868 414 569 494 686 l 494 871 b 422 1083 494 983 464 1042 b 275 1139 389 1117 336 1139 z m 278 863 b 188 950 224 863 188 896 b 278 1036 188 1001 226 1036 b 369 950 329 1036 369 1001 b 278 863 369 893 335 863 z "},"₀":{"ha":556,"x_min":0,"x_max":0,"o":"m 276 -197 b 507 85 403 -197 507 -90 l 507 92 b 278 372 507 265 404 372 b 49 90 150 372 49 265 l 49 83 b 276 -197 49 -90 149 -197 z m 276 258 b 381 93 332 258 381 206 l 381 82 b 278 -83 381 -32 333 -83 b 175 82 221 -83 175 -31 l 175 93 b 276 258 175 207 221 258 z "},"₁":{"ha":451,"x_min":0,"x_max":0,"o":"m 319 -183 l 319 365 l 231 365 l 61 299 l 96 199 l 200 238 l 200 -183 z "},"₂":{"ha":556,"x_min":0,"x_max":0,"o":"m 72 -183 l 479 -183 l 479 -78 l 238 -78 l 363 21 b 476 207 444 86 476 132 b 283 372 476 306 400 372 b 72 257 182 372 126 329 l 158 186 b 276 260 196 233 233 260 b 350 196 317 260 350 236 b 257 71 350 153 322 124 l 72 -79 z "},"₃":{"ha":556,"x_min":0,"x_max":0,"o":"m 272 -197 b 478 -17 400 -197 478 -124 b 314 133 478 79 406 126 l 468 264 l 468 358 l 93 358 l 93 250 l 315 250 l 171 122 l 190 46 l 256 46 b 356 -21 315 46 356 24 b 274 -87 356 -61 317 -87 b 126 -24 221 -87 168 -60 l 56 -114 b 272 -197 111 -162 176 -197 z "},"₄":{"ha":556,"x_min":0,"x_max":0,"o":"m 436 -72 l 508 -72 l 508 24 l 436 24 l 436 364 l 314 364 l 53 43 l 64 -72 l 325 -72 l 325 -186 l 436 -186 z m 326 22 l 157 22 l 326 233 z "},"₅":{"ha":556,"x_min":0,"x_max":0,"o":"m 271 -197 b 488 -6 403 -197 488 -122 b 296 163 488 107 403 163 b 207 151 265 163 228 158 l 215 249 l 460 249 l 460 358 l 115 358 l 93 88 l 169 42 b 269 61 193 53 232 61 b 365 -11 328 61 365 33 b 274 -85 365 -57 326 -85 b 128 -26 222 -85 176 -64 l 57 -119 b 271 -197 117 -165 182 -197 z "},"₆":{"ha":556,"x_min":0,"x_max":0,"o":"m 281 -197 b 485 -4 399 -197 485 -121 b 303 169 485 113 400 169 b 189 140 251 169 219 158 b 300 263 196 214 239 263 b 408 222 343 263 376 247 l 465 319 b 303 372 421 353 376 372 b 61 74 142 372 61 256 l 61 71 b 133 -142 61 -42 92 -100 b 281 -197 167 -175 219 -197 z m 278 -94 b 186 -11 226 -94 186 -61 b 278 74 186 44 221 74 b 368 -11 332 74 368 42 b 278 -94 368 -61 329 -94 z "},"₇":{"ha":556,"x_min":0,"x_max":0,"o":"m 243 -186 l 478 264 l 478 358 l 88 358 l 88 246 l 338 246 l 107 -186 z "},"₈":{"ha":556,"x_min":0,"x_max":0,"o":"m 278 -197 b 486 -33 399 -197 486 -136 b 400 99 486 32 453 71 b 472 221 442 124 472 160 b 278 372 472 306 397 372 b 82 221 157 372 82 306 b 154 99 82 161 111 124 b 68 -35 99 72 68 31 b 278 -197 68 -135 154 -197 z m 278 276 b 360 208 325 276 360 247 b 278 138 360 164 324 138 b 194 208 229 138 194 165 b 278 276 194 247 228 276 z m 278 46 b 371 -28 331 46 371 19 b 278 -103 371 -74 335 -103 b 182 -28 218 -103 182 -72 b 278 46 182 19 224 46 z "},"₉":{"ha":556,"x_min":0,"x_max":0,"o":"m 275 372 b 71 176 157 372 71 292 b 256 0 71 58 158 0 b 365 29 307 0 335 11 b 256 -87 358 -42 315 -87 b 138 -43 213 -87 169 -68 l 81 -140 b 253 -197 125 -174 179 -197 b 494 101 414 -197 494 -81 l 494 104 b 422 317 494 217 464 275 b 275 372 389 350 336 372 z m 278 96 b 188 183 224 96 188 129 b 278 269 188 235 226 269 b 369 183 329 269 369 235 b 278 96 369 126 335 96 z "}," ":{"ha":417,"x_min":0,"x_max":0,"o":""}," ":{"ha":417,"x_min":0,"x_max":0,"o":""}," ":{"ha":1389,"x_min":0,"x_max":0,"o":""}," ":{"ha":694,"x_min":0,"x_max":0,"o":""}," ":{"ha":463,"x_min":0,"x_max":0,"o":""}," ":{"ha":347,"x_min":0,"x_max":0,"o":""}," ":{"ha":185,"x_min":0,"x_max":0,"o":""}," ":{"ha":104,"x_min":0,"x_max":0,"o":""}," ":{"ha":833,"x_min":0,"x_max":0,"o":""},"^":{"ha":694,"x_min":0,"x_max":0,"o":"m 69 685 l 219 685 l 346 847 l 472 685 l 625 685 l 419 972 l 275 972 z "},"~":{"ha":708,"x_min":0,"x_max":0,"o":"m 468 325 b 640 517 565 325 608 400 l 528 551 b 449 483 508 507 492 483 b 367 507 426 483 399 494 b 240 538 332 521 288 538 b 68 346 143 538 100 463 l 181 311 b 260 379 200 356 217 379 b 342 356 282 379 310 368 b 468 325 376 342 421 325 z "},"⁄":{"ha":139,"x_min":0,"x_max":0,"o":"m -318 0 l -203 0 l 104 463 l 457 972 l 342 972 l 35 510 z "},"´":{"ha":694,"x_min":0,"x_max":0,"o":"m 206 826 l 361 826 l 542 993 l 360 1072 z "},"˝":{"ha":694,"x_min":0,"x_max":0,"o":"m 317 826 l 465 826 l 649 993 l 471 1072 z m 60 826 l 208 826 l 389 993 l 211 1072 z "},"`":{"ha":694,"x_min":0,"x_max":0,"o":"m 333 826 l 489 826 l 335 1072 l 153 993 z "},"ˆ":{"ha":694,"x_min":0,"x_max":0,"o":"m 76 826 l 236 826 l 346 918 l 456 826 l 618 826 l 447 1044 l 247 1044 z "},"ˇ":{"ha":694,"x_min":0,"x_max":0,"o":"m 618 1044 l 458 1044 l 349 953 l 239 1044 l 76 1044 l 247 826 l 447 826 z "},"˘":{"ha":694,"x_min":0,"x_max":0,"o":"m 347 824 b 608 1044 494 824 596 904 l 467 1044 b 347 961 450 994 417 961 b 228 1044 278 961 244 994 l 86 1044 b 347 824 99 904 200 824 z "},"˜":{"ha":694,"x_min":0,"x_max":0,"o":"m 461 826 b 633 1018 558 826 601 901 l 521 1053 b 442 985 501 1008 485 985 b 360 1008 419 985 392 996 b 233 1039 325 1022 281 1039 b 61 847 136 1039 93 964 l 174 813 b 253 881 193 857 210 881 b 335 857 275 881 303 869 b 461 826 369 843 414 826 z "},"¯":{"ha":694,"x_min":0,"x_max":0,"o":"m 97 833 l 597 833 l 597 979 l 97 979 z "},"¨":{"ha":694,"x_min":0,"x_max":0,"o":"m 390 826 l 593 826 l 593 1014 l 390 1014 z m 101 826 l 304 826 l 304 1014 l 101 1014 z "},"˙":{"ha":694,"x_min":0,"x_max":0,"o":"m 243 826 l 451 826 l 451 1014 l 243 1014 z "},"˚":{"ha":694,"x_min":0,"x_max":0,"o":"m 347 824 b 515 986 440 824 515 896 b 347 1149 515 1076 440 1149 b 179 986 254 1149 179 1076 b 347 824 179 896 254 824 z m 347 894 b 256 986 297 894 256 936 b 347 1078 256 1036 297 1078 b 439 986 397 1078 439 1036 b 347 894 439 936 397 894 z "},"̦":{"ha":694,"x_min":0,"x_max":0,"o":"m 246 -406 b 443 -217 374 -403 443 -350 l 443 -82 l 251 -82 l 251 -242 l 340 -242 b 235 -342 344 -300 308 -335 z "},"¸":{"ha":694,"x_min":0,"x_max":0,"o":"m 340 -240 l 449 28 l 297 28 l 164 -167 z "},"˛":{"ha":694,"x_min":0,"x_max":0,"o":"m 494 -135 b 397 -78 433 -137 397 -118 b 444 14 397 -53 410 -22 l 304 14 b 246 -111 269 -28 246 -67 b 432 -232 246 -179 311 -232 b 494 -228 450 -232 472 -231 z "}}}
